<svg height="704pt" preserveAspectRatio="xMidYMid meet" viewBox="0 0 700 704" width="700pt" xmlns="http://www.w3.org/2000/svg"><g transform="matrix(.1 0 0 -.1 0 704)"><path d="m0 3520v-3520h2829c2500 0 2830 2 2835 15 7 20 75 20 82 0 5-13 85-15 630-15h624v3520 3520h-1107c-873-1-1105-3-1093-13 8-7 14-22 12-34-3-17 2-23 17-23 27 0 33-13 17-35-13-18-16-17-55 14-22 18-41 37-41 42s-9 18-20 29c-20 20-33 20-2375 20h-2355zm4723 3471c14-2 7-49-10-55-19-7-38 9-47 39-6 21-1 22 57 16zm126-120c30-23 25-56-9-56-22 0-25 5-27 38-2 42 2 44 36 18zm-271-9c2-7-3-12-12-12s-16 7-16 16c0 17 22 14 28-4zm377 8c3-5-1-10-9-10-9 0-16 5-16 10 0 6 4 10 9 10 6 0 13-4 16-10zm112-32c4-7 9-21 10-32 2-13-1-17-13-12-10 4-25-1-36-11-17-15-20-15-34-1-17 17-11 38 11 38 7 0 15 7 19 15 7 18 32 20 43 3zm-265-18c0-11 1-24 2-30 1-5-3-9-9-7-5 1-10 7-10 14 0 6-4 15-8 19-12 12-8 24 8 24 8 0 16-9 17-20zm-552-6c0-8-4-12-10-9-5 3-10 10-10 16 0 5 5 9 10 9 6 0 10-7 10-16zm1148-89c4-58 2-65-14-65-35 0-47-15-34-40 9-17 9-25-4-39-17-18-21-41-8-41 4 0 13-4 21-9 12-8 12-12 2-25-12-14-10-16 8-16 17 0 21-5 17-17-3-10-8-31-12-48-4-16-10-34-14-40-10-14-22-81-12-70 4 6 14 28 21 50 8 22 18 46 23 53 16 19 65 14 88-10 23-25 26-43 6-35-22 9-43-40-28-63 7-11 12-29 12-41 0-19 4-20 39-14 23 4 48 2 58-4 20-12 21-12-62-16-22-1-44-3-50-5-18-4-60 2-70 10-6 5-17 5-24 1-7-5-21-6-31-4-20 5-57-37-67-76-3-14-15-34-25-45s-18-24-18-29-6-7-13-4c-11 4-12-4-5-45 10-56 6-68-22-51-15 10-21 8-36-15-26-40-266-272-281-272-7 0-13-7-13-15 0-18-5-18-31-5-17 9-19 7-19-18 0-22-17-45-77-104-115-112-233-223-244-226-5-2-8 110-6 262 2 227 4 268 18 281 14 14 17 14 28 1 9-11 10-20 2-35-21-38-6-54 29-31 12 8 13 13 3 29s-9 32 7 84c21 66 52 108 65 87 9-15 25 6 25 35 1 23 75 106 93 104 7-1 31-1 53 0 41 1 42 2 48 44 9 62 7 100-6 112-8 7-9 6-4-3 5-8-6-26-27-47-32-32-40-35-91-35-52 0-70-10-46-25 18-11 11-23-17-28-38-7-66 9-58 34 6 19 1 19-128 18-149-2-170 3-138 32 11 10 26 19 33 19 22 1-35 28-75 35-30 6-37 4-37-9 0-9 4-16 10-16 13 0 44-49 37-57-3-3-59-7-124-10-114-3-118-3-128 19-15 33-35 35-35 3 0-28-6-29-54-10-16 7-18 4-14-23 3-19 0-30-6-29s-11-7-11-18c0-23-34-33-46-13-5 7-16 14-26 15-21 2-98 29-129 44-34 17-88 6-92-18-4-25 36-66 56-58 25 9 50-12 45-39-5-26-35-40-52-23-7 7-8 3-5-10 3-12 1-24-6-28s-14 2-17 15c-4 16-11 20-28 16-46-12-59 55-14 69 23 8 23 14 5 50-14 28-33 45-49 45-5 0-8-37-7-82 2-122 1-128-14-128-17 0-31-18-22-27 3-3 12 0 21 7 13 11 15 5 15-49 0-33-3-61-7-61-5 0-16 18-25 40-12 28-23 40-37 40-12 0-21 5-21 10 0 6 5 10 10 10 6 0 10 5 10 11 0 5-12 9-27 8-67-5-93 1-93 20 0 11-7 27-16 36-11 10-17 36-18 79-2 63-2 64 21 53 30-13 44 0 19 18-18 14-18 15-1 41 9 14 26 29 36 31 25 7 24 20-1 28-13 4-20 15-20 31 0 28-38 51-66 40-13-5-15-14-10-45 6-40-12-70-34-56-20 13-9-34 12-49 25-18 23-24-12-27-75-7-106 13-82 51 9 15 7 19-18 22-35 5-44-11-28-47 13-29 6-39-34-49-21-5-28-3-28 8 0 12-15 14-84 9-58-4-86-2-91 6-5 9-10 9-20 1-8-7-45-9-96-7-82 4-83 4-101 36s-18 34-1 47c23 17 50 18 60 2 26-41 39-39 89 11 55 55 94 105 94 121 0 5 7 10 16 10 12 0 14-5 8-17-12-27-8-74 7-83 18-12 45 5 52 30 7 29-18 37-43 15-11-10-20-14-20-9 0 10 24 32 57 51 11 6 52 11 91 11 68-1 90-9 57-22-18-6-20-26-3-26 6 0 21-9 33-20l22-20-5 30c-7 49 10 60 99 60 64 0 79-3 79-15 0-8 5-15 10-15 6 0 8-11 4-25-4-18-1-27 10-31 20-8 21-7 30 29 5 20 3 27-9 27-8 0-15 7-15 15 0 13 25 15 169 15 163 0 169-1 184-22l16-23 7 23c5 17 14 22 42 22 40 0 118 26 143 47 23 20 49 16 49-7 0-20-8-24-47-21-11 1-24-3-28-8-7-12-12-12 150-16 66-1 131-5 145-7s30-1 35 3c9 6 79 13 112 10 6-1 15-13 20-27l9-26 24 26c24 24 30 26 125 26 71-1 105-5 119-15 19-14 36-12 36 6 0 5-7 9-15 9s-15 7-15 15 7 15 15 15 15-4 15-10c0-5 9-10 20-10s20 3 20 8c0 12 73 8 77-5 9-26 23-12 23 23 0 19 4 43 10 53 7 14 2 28-22 61-22 30-33 56-34 86-3 50 4 53 61 30 50-21 59-45 40-108-21-73-19-96 14-129l29-29 50 53c63 66 96 106 111 134 6 12 27 29 45 38 19 9 37 26 40 39 9 35 80 96 105 89 15-4 23 1 32 21 11 24 14 25 28 11 9-9 17-40 19-80zm-443 65c-3-5-10-10-16-10-5 0-9 5-9 10 0 6 7 10 16 10 8 0 12-4 9-10zm30-60c3-5 1-10-4-10-6 0-11 5-11 10 0 6 2 10 4 10 3 0 8-4 11-10zm-3399-15c16-8 43-28 59-44 27-29 28-32 14-57-8-15-22-29-31-32-10-2-18-10-18-18 0-24-44-65-74-67-25-2-30 3-42 37-13 37-13 42 11 76 14 20 25 43 25 52s5 20 10 23c6 4 8 11 5 16-5 8 1 29 9 29 2 0 16-7 32-15zm1522-57c-6-18-28-21-28-4 0 9 7 16 16 16s14-5 12-12zm805-23c20-9 37-24 37-31 0-8 9-14 19-14 11 0 27-10 35-22 18-26 7-54-30-70-22-10-28-8-55 22-29 31-32 32-67 22-78-23-92-24-92-4 0 14-8 18-36 19-41 1-59 15-51 37 8 19 50 21 65 3 8-9 26-11 59-8 38 5 48 10 51 26 5 33 11 46 19 42 5-2 25-12 46-22zm248-8c-1-12-15-9-19 4-3 6 1 10 8 8 6-3 11-8 11-12zm-1301-17c0-5-4-10-10-10-5 0-10 5-10 10 0 6 5 10 10 10 6 0 10-4 10-10zm1551-13c22-39-21-51-52-14-25 30-24 35 12 33 17-1 35-9 40-19zm360-10c-10-9-11-8-5 6 3 10 9 15 12 12s0-11-7-18zm625-24c-10-10-19 5-10 18 6 11 8 11 12 0 2-7 1-15-2-18zm-3583-34c26-17 56-44 67-60 12-15 34-37 49-48 24-18 32-19 55-8 14 7 26 20 26 30 0 23 41 23 68-2 12-10 22-30 22-45 0-16 5-26 15-26 8 0 15-7 15-16 0-12-6-15-22-11-12 4-28 1-35-5-10-8-18-6-33 7-18 16-40 14-40-5 0-13 71-52 86-46 7 3 24-1 38-7 27-12 35-44 16-63-11-11 30-64 49-64 5 0 21-14 35-31 19-22 26-42 26-72 0-29 8-54 25-80 25-36 45-48 45-27 0 6 5 10 10 10 6 0 10-12 10-26s5-46 12-71c8-35 8-50-1-65-7-12-8-25-3-35 5-9 7-24 5-33-4-14 3-20 26-25 17-3 39-17 50-31 10-13 22-24 25-24 16 0 23 53 16 125-5 47-4 84 1 90 5 5 9 26 9 46 0 23 5 39 14 42 21 8 39-19 33-50-8-41 27-103 58-103 18 0 26-7 31-25 3-14 4-31 1-39s10-32 29-54 34-50 34-61c0-15 6-21 24-21 33 0 76-57 69-93-3-15-11-27-18-27s-16-7-19-16c-19-50 15-86 62-65 21 10 24 16 19 46-3 19-1 37 4 41 13 7 39-27 31-40-3-5 2-7 12-3 11 4 15 3 10-4-3-6 8-23 25-38s31-31 31-36c0-4-9 0-20 10-31 28-35 17-27-73 3-23 1-45-3-47-15-10-38 7-44 31-9 34-26 30-23-6 2-24 9-33 40-45 33-13 41-14 59-1 25 18 58 2 58-27 0-10 8-30 17-44 13-19 14-28 5-31-6-2-12-10-12-18 0-10 7-13 25-8 25 6 36-10 13-19-8-3-5-6 5-6 15-1 18 5 15 37-3 33-1 37 20 35 27-3 28 7 1 41-11 14-23 43-25 64l-4 37 23-27c14-16 27-28 31-28 8 0 76-72 76-81 0-4-7-10-16-13-12-4-15-17-12-49 3-38 1-42-21-45-13-2-37-17-53-33s-34-29-39-29c-17 0-9-22 10-27 11-3 22-10 24-17 3-7 18-11 33-10 16 1 39 2 52 3 15 1 22 7 22 22 0 38 23 99 37 99 7 0 13 6 13 14 0 24 18 28 43 11 23-15 25-14 52 30 16 25 36 45 44 45 12 0 12 3 3 12-17 17-15 31 3 24 20-7 19 4-1 19-38 27 18 75 79 66 19-2 21 7 8 28-5 7-14 10-20 7-6-4-16 3-22 17-15 32 6 76 70 148 26 30 46 61 44 69-3 9-1 11 4 4 4-6 16-13 26-17 28-11 22-67-10-93-26-21-26-22-11-46 17-26 9-48-18-48-18 0-37-27-25-35 18-10 63 18 81 49 23 42 37 42 44 2 5-24 2-43-8-58-24-38-35-125-24-196 7-44 7-67 0-71-6-4-10-48-10-106 1-183 2-175-32-168-29 5-30 4-32-31-1-20-2-50-3-66-1-17 2-33 7-36 4-3 8 11 8 30 0 36 6 41 50 38 19-1 50 40 57 76 4 26 11 69 12 85 1 4 10 7 21 7 26 0 26 22-1 38-13 9-18 19-14 32 4 12 0 22-12 28-16 9-15 12 5 34 12 12 32 39 45 58 16 24 31 35 49 36 24 1 77 32 78 45 0 7 22 32 121 137 38 40 76 86 84 103 19 35 51 50 82 38 30-11 75 23 56 42-7 7-13 19-13 25 0 19 50 75 77 85 12 5 23 16 23 25 0 19 74 110 102 125 23 12 38-1 38-33 0-13-8-18-30-18-32 0-36-9-19-41 7-14 16-18 31-13 20 6 21 4 15-117-4-68-7-139-7-157 0-25-5-35-25-42-32-12-42-37-26-62 13-22 5-42-14-34-7 2-21-2-32-9-14-12-15-16-5-23s4-16-23-36c-19-15-34-33-33-40 4-17-47-76-66-76-9 0-16-8-16-17 0-19-35-58-213-243-77-79-117-114-130-112-14 3-17-1-13-15 4-13-2-27-19-43-14-13-25-32-25-42 0-14-5-18-19-13-14 4-26-3-44-26-32-42-47-30-47 36 0 38-4 54-15 59-8 3-15 13-15 21 0 9-4 14-9 11-15-10 0-140 18-152 13-10 13-18 3-50-8-26-8-42-1-50 7-9 7-19 0-32-8-15-7-28 5-51 18-36 26-40 22-9-3 19 3 24 37 31 22 5 57 8 78 7 33 0 37 2 37 24 0 13 7 26 15 30 8 3 14 9 13 14-2 5 23 35 54 67 39 40 54 61 46 66s-4 11 12 17c14 6 36 22 49 36 31 33 45 33 38-1-6-32 8-63 27-63 15 0 29 52 16 60-4 3-10 19-14 35-5 26 0 37 46 84 47 48 53 52 56 33 2-14 11-22 23-22 22 0 26 28 4 36-24 10-17 34 15 52 16 9 30 20 30 23s6 14 14 24c12 16 16 17 30 6 14-12 16-10 14 12-2 19 12 41 47 80 28 30 56 53 63 51s10 1 7 6c-9 14 44 60 69 60 12 0 27 4 34 9 11 7 11 9-2 14-23 9-20 18 22 64 20 22 48 53 60 68 32 37 44 21 35-46-7-48-11-54-32-55-28-2-54-32-48-56 4-12-14-26-70-55-70-35-98-56-132-98-15-19-6-34 11-17 7 7 20 12 29 12s39 18 65 41c27 22 58 45 69 50s34 18 52 29c18 10 35 15 38 10s0-12-5-15c-6-4-9-19-6-33 4-15 0-39-8-55-9-15-13-34-10-42s-1-29-10-46c-9-18-16-42-16-53 0-12-7-32-16-44-13-19-19-21-30-11-11 9-18 9-26 1-14-14-1-33 17-25 8 3 15 1 15-4 0-18-62-102-125-171-36-39-65-77-65-86s-7-16-15-16c-9 0-28-11-43-25s-37-25-49-25c-17 0-23-6-23-22 0-25-27-58-47-58-7 0-13-4-13-9 0-17-192-181-212-181s-21 9-2 72c6 20-26 33-56 23-29-9-70 20-70 50 0 16-6 24-17 24-10-1-28 2-40 6-19 6-23 3-23-13s-5-19-21-15c-25 7-51-20-42-43 8-20-44-18-55 2-8 14-11 14-18 3-13-21-16-59-4-59 5 0 10 5 10 10 0 6 7 10 15 10s15-4 15-10c0-5 7-10 15-10s15-7 15-15c0-10-10-15-34-15-40 0-64-23-47-44 9-11 8-14-6-12-12 1-17-5-15-16 2-10-3-18-9-18-7 0-5-8 6-20 21-24 43-25 71-5 12 8 23 12 26 10 7-7-9-126-20-155-8-21-149-193-171-210-4-3-17-20-30-38-16-22-30-32-45-31-11 2-31-1-43-5-19-6-23-15-23-49-1-35-8-50-41-87-22-25-65-76-96-115-66-81-70-85-101-85-18 0-21-4-17-23 5-18-3-34-34-68-22-24-41-47-41-51 0-5-7-8-15-8s-15-4-15-9c0-23-47-80-70-84-14-3-27-3-29-1s4 84 14 182c16 149 21 179 34 178 10-1 17 9 19 22 3 20 0 23-17 17-12-4-21-2-21 4s5 11 11 11 20 11 30 25c13 16 25 22 37 18 15-6 15-5 3 10-8 10-9 17-3 17s19 16 28 36c14 29 15 39 4 59-23 43 15 79 39 38 12-20 3-28 102 86 22 25 39 49 39 53 0 5 12 5 28 2 24-7 26-6 13 9-11 14-11 20-1 32 7 8 18 15 24 15 24 0 38 17 29 34-8 14-15 11-51-24-44-41-57-47-67-30s-25 11-25-10c0-22-16-27-23-7-3 9-9 7-24-6-11-9-24-17-30-17s-13-6-16-12c-3-9-10-7-21 7-8 11-16 16-17 10-3-16-7-30-9-35-1-3-3-20-5-39s-10-40-19-47c-9-6-14-18-10-27 8-23-15-31-31-11-14 19-15 60-2 81 4 6-2 13-13 16-26 7-26 27 0 27 14 0 20 7 20 21 0 11-4 18-9 14-23-14-22 14 15 235 4 25 8 63 8 85 1 22 4 42 7 45 14 12 38 105 33 126-5 18-3 23 7 19 9-3 24 11 38 35 14 22 38 54 53 72 16 18 33 39 39 46 5 6 19 12 30 12 16 0 19 4 14 20-4 13-1 22 9 26 9 3 16 10 16 15 0 16 75 78 84 69 16-16 36 1 30 26-5 20 9 39 87 119 51 52 98 94 103 94 27-3 38 2 32 16-7 18 15 20 32 3 9-9 12-7 12 9 0 29-10 53-22 53-6 0-36-28-68-62-65-69-90-73-90-13 0 29 5 37 25 45 14 5 25 14 25 20 0 17-9 12-48-25-20-19-41-35-45-35-5 0-5-9-2-20 7-21-10-29-18-7-2 7-23-5-54-33-28-25-67-55-88-68l-37-22-28 22c-16 13-29 29-29 36-1 6-7 12-15 12s-20 2-28 5c-7 2-22-2-32-10-19-14-19-15 8-40 15-14 40-32 57-40 16-9 29-18 29-21 0-4-14-23-30-44-17-21-30-41-30-44 0-4-16-32-35-62s-35-57-35-60c0-5-12-20-38-49-21-24-58-18-90 14-16 16-46 34-68 40-25 7-43 19-49 33-6 13-20 24-31 26-28 4-39 41-17 57 13 10 10 15-23 35-22 13-47 23-56 21-26-3-72 24-130 79-29 27-56 50-60 50-20 0-34 32-33 73 2 34-4 53-21 74-21 25-23 26-24 7 0-11-6-28-13-38-12-17-14-17-28 0-8 10-14 40-15 71 0 45 2 53 18 53 28 0 21 19-21 59-55 51-97 81-114 81-22 0-42 29-30 41 14 14 53 2 53-16 0-8 4-16 9-19s6 14 4 38c-5 38-2 46 17 56 20 11 22 17 17 61-3 27-2 49 2 49 5 0 6 11 3 25-2 14-2 25 1 25s38-32 77-70c59-60 76-71 110-74 25-3 40 0 40 7 0 6 6 2 14-8 8-11 12-23 10-27-3-5 2-18 10-30 9-12 16-30 16-40s9-26 20-35c11-10 20-22 20-29 0-15 31-41 55-46 37-6 22-32-23-41l-43-8 3-42c3-36 7-43 32-52 25-8 31-6 52 18 13 16 24 37 24 47 0 34 17 30 66-16 27-25 57-50 67-55 9-5 17-16 17-24s7-15 16-15c8 0 30-11 47-24 18-13 42-27 55-31 21-6 22-5 10 22-7 15-18 31-24 35-8 6-9 19-4 45 11 46 0 66-51 99-22 13-42 31-45 39-4 10-23 13-80 10-61-4-76-2-81 11-7 19 13 34 45 34 17 0 22 6 22 25 0 14-5 25-11 25s-36 25-66 56c-51 54-53 57-37 75 20 22 12 38-10 20-12-10-18-7-31 18-8 17-18 51-22 76-6 47-16 57-27 29-6-15-9-15-29 4-18 17-22 30-19 62 4 42 10 48 30 28 27-27 28 42 1 112-17 43-32 55-40 32-3-10-16-17-30-17-21 0-24-5-25-35-1-19-2-52-3-72-1-27-6-38-16-38-8 0-15 4-15 10 0 5-19 19-42 30-24 11-59 34-78 51s-45 34-57 39c-13 5-23 16-23 23 0 8-25 38-55 68-78 77-85 84-85 96 0 6-15 23-32 38-41 34-78 92-78 123 0 17-6 22-24 22-28 0-90 66-108 116-6 19-17 34-23 34-17 0-69 100-59 110 15 15 174 25 174 11 0-15 45-32 65-25 8 4 14 11 13 18-4 22 14 58 35 67 18 8 17 8-8 4-16-4-40-6-51-6-13 0-24-7-27-19-3-11-11-20-17-20-8 0-10 9-6 25 5 19 0 32-18 50-13 13-26 32-28 41s-20 31-41 47c-29 24-40 28-49 19s-8-12 5-12c9 0 17-7 17-15s7-15 15-15c21 0 9-22-25-45-30-20-40-57-20-70 18-11 0-25-33-25-37 1-59 26-75 83-10 34-8 41 10 38 3 0 20 22 38 49 31 48 112 130 128 130 5 0 30-14 55-31zm2867 27c0-11-19-15-25-6-3 5 1 10 9 10 9 0 16-2 16-4zm1370-10c0-11-19-15-25-6-3 5 1 10 9 10 9 0 16-2 16-4zm-445-187c55-108 58-119 35-119-14 0-18 5-13 16 5 13 2 15-15 9-13-3-22-2-22 3 0 6 5 12 11 14 22 7-4 58-47 90-51 39-56 58-14 58 27 0 33-7 65-71zm85 56c0-8-5-15-11-15-7 0-9-10-5-25 4-14 3-25-2-25s-14 11-20 25-16 25-22 25c-5 0-10 7-10 15 0 10 11 15 35 15s35-5 35-15zm224-7c-1-10 4-18 11-18 8 0 27-13 43-30 17-16 36-30 42-30s26-11 44-25 38-25 43-25c6 0 13-6 16-14s18-20 34-28c30-14 44-48 20-48-8 0-17 6-20 14-9 22-96 78-113 72-9-4-14-21-14-56v-50l-51-25c-36-19-48-29-41-38 14-17 19-62 7-62-6 0-10 10-10 23 1 17-3 21-15 16-8-4-28-9-43-12-37-6-30-23 21-46 48-22 51-27 20-41-41-18-24-30 40-29 52 1 62-1 62-15 0-10 14-22 35-30 24-8 35-19 35-32 0-26-41-26-64 0-10 11-23 18-30 15s-25 0-41 6c-32 12-30 13-40-18-5-19-3-23 11-20 14 2 18-5 19-47 1-32-4-56-13-67-13-16-13-20 3-38 12-13 15-24 9-32-8-12-10-34-4-48 3-7 6-90 4-90s-20 17-40 39c-26 26-43 37-57 33-10-3-23 1-27 9-7 11-10 10-15-3-7-17 45-78 65-78 5 0 10-10 12-22 2-15 10-23 23-24 11-1 26-2 33-3 9-1 12-27 12-95 0-90-1-95-22-98-32-4-31-42 0-46 20-3 22-8 21-58-1-30-4-54-7-54-11 0-42 34-42 45 0 7-7 18-15 25-23 19-66-3-64-32 6-68-11-90-33-42-10 22-10 28 5 39 9 7 17 22 17 34 0 25-20 29-21 4 0-14-2-15-6-3-12 30-28 29-40-3-6-18-12-40-12-49-2-38-146-311-187-354-24-25-19-39 11-39 13 0 21-8 23-23 5-31-26-41-47-15-17 20-17 20-56-13-21-19-34-34-30-34 17 0-74-85-112-105-21-11-42-25-48-31-15-17-124-88-174-113l-43-22-15 20c-8 13-25 21-42 21-15 0-32 5-37 10-18 18-62-12-69-47-3-19-12-33-20-33s-15-4-15-10c0-14 27-12 33 3 4 10 7 10 18 0 7-7 25-13 40-13 24 0 27 4 25 31-1 41 14 46 50 16 16-13 41-27 56-30 14-4 33-9 40-12 9-4 19 4 26 20 16 34 29 32 74-12l37-36 57 37c53 36 57 37 75 20 11-9 22-14 27-10 4 4-1 13-10 20-17 12-17 14 0 28 9 9 46 34 81 57l64 41 32-19c32-19 32-19 64 6 36 28 45 62 10 41-17-11-22-10-34 6-10 13-11 24-5 36 5 10 6 20 3 24-3 3 1 6 10 6 8 0 17-6 20-12 3-10 11-10 37-1l32 12-7-47c-7-53-35-153-46-166-4-5-3-19 3-32 9-20 6-32-21-75-37-60-37-89 2-107 28-14 33-27 17-52-13-20-44-2-48 29-5 35-16 25-48-44-21-44-27-68-20-75 16-16 36-12 36 8 0 13 2 14 9 3 6-9 18-12 36-7 20 5 31 2 39-10 9-11 19-14 34-10 21 7 31 26 14 26-5 0-9 16-10 35-1 25 4 39 18 47 18 12 18 12-1 26-26 18-28 116-1 131 9 6 12 11 6 11-16 0-25 52-12 68 7 8 7 17-2 27-17 20-9 27 48 42 58 15 102 16 102 3 0-5-7-10-15-10-22 0-18-38 5-50 25-13 46-4 31 14s-2 56 20 56c17 0 19-7 17-65-1-36-4-65-7-65s-17 9-31 20-33 20-42 20-20 5-23 10c-9 14-35-7-35-26 0-17 36-19 46-3 3 6 10 7 15 2s1-25-11-48c-26-51-25-59 5-79 18-12 24-23 20-36-3-10-1-21 5-25 5-3 10-14 10-25 0-10 7-20 15-24 12-4 15 3 15 33s4 40 19 44c11 3 22 2 25-1 10-9 7-51-4-57-6-4-10-30-8-58 3-49 5-52 33-57 24-4 30-10 30-30 0-28-34-82-47-74-4 3-8-2-8-11s-11-27-25-41c-24-24-26-24-51-7-24 16-27 16-36 0-5-9-17-17-27-17s-24-7-32-16c-10-13-10-20 4-44 9-15 17-35 17-44s8-20 18-23c9-4 19-10 22-14 9-13 60 40 60 61 0 24 18 26 27 3 4-10-1-22-13-32-20-16-104-134-104-146 0-16-57-75-72-75-22 0-24 26-3 34 20 7 19 36-1 36-14 0-15 12-11 88 3 48 9 102 13 121 7 33 6 34-22 27-53-13-94-13-105 1-16 18-26 16-32-7-5-19-14-20-120-20-91 0-117-3-127-15-8-10-20-13-29-9-44 19-76 12-121-25-58-48-280-201-293-201-5 0-18 11-29 25s-23 23-28 20c-4-3-11 2-14 10-9 25-56-22-56-56 0-15-6-29-14-32s-16-20-18-38c-3-32-30-60-44-46-4 4 7 38 26 76 34 72 35 101 0 101-11 0-20 3-20 6 0 12 45 43 63 44 24 0 37 32 91 234 15 54 25 104 23 110s-9-9-15-34c-20-84-41-153-49-160-14-13-58-19-71-11-11 6-11 17-3 47 16 57 15 70-4 54-9-7-14-19-11-25 2-7-4-38-15-71-19-57-115-279-130-299-4-5-23-41-43-78-29-56-33-72-25-91 14-29-15-93-34-78-7 5-25 9-42 8-22-1-33-8-43-29-8-16-20-31-28-34s-14-14-14-24c0-21-11-24-27-8-9 9-20 6-43-11-17-12-38-19-47-16-14 6-65-23-253-143-14-9-33-20-42-26-9-5-32-20-51-32l-35-21-21 22-21 22 55 182c30 100 55 184 55 187s11 5 25 5c15 0 31-9 41-25 20-30 35-32 59-5 17 18 17 21 2 38-10 11-14 26-10 42 5 18 0 28-21 45l-28 22 95 72c85 63 99 70 127 65 29-6 32-5 29 18-4 27 19 57 38 51 6-2 14 4 18 14 3 10 44 45 91 78s97 71 112 84 43 34 62 46 44 33 55 45c17 20-44-19-169-107-26-19-46-23-124-24-50-1-94 0-96 2-6 6 221 200 258 221 23 13 56 17 123 18 104 0 121-10 79-47-38-33-25-29 29 9 24 17 48 28 52 24 4-3 1-27-5-53-18-66-8-64 14 4 18 56 20 58 57 61 21 2 37-1 37-7s5-11 10-11c6 0 10 7 10 15s-4 15-10 15c-5 0-27 16-49 35-34 31-44 35-95 35-31 0-56 4-56 10 0 5-12 15-26 23l-26 13 35 31c19 17 40 32 45 34 6 2 22 33 35 69 18 47 29 64 41 62 9-2 16 2 16 8 0 5-5 10-11 10-8 0-9 11-5 31 3 19 1 38-6 46-9 11-8 13 2 11 9-2 24 28 45 92 19 58 36 95 45 95 7 0 15 6 18 13 2 6-1 12-7 12-40 0 31 86 122 149 53 36 74 33 83-15 7-39 24-46 24-10 0 27 35 42 56 25 9-7 19-7 31-1 18 10 10 13-89 38-16 3-28 9-28 13 0 13 172 122 185 117 8-3 12 0 9 7-4 11 77 77 138 112 10 5 62 40 116 78 55 37 103 67 107 67 3 0 19 12 34 28 42 41 100 69 110 53s22 24 14 45c-4 11-12 8-37-13l-31-26-3 48c-2 32 1 51 10 57 11 6 10 10-2 17-12 8-12 12 3 29 21 23 24 50 3 33-11-9-15-9-18 0-5 14 12 151 19 159 8 8 21-23 16-37-4-11 1-12 21-7 15 3 32 1 40-5 9-8 22-8 38-2 43 16 50 61 15 103-17 21-28 25-50 21-26-5-34-28-10-28 6 0 15-3 19-7 4-5 16-8 26-8 13 0 18-7 18-25 0-15-6-25-15-25-8 0-22 11-31 25-17 25-57 34-69 15-12-20-35-10-35 15 0 18 5 25 19 25 11 0 23 5 26 10 9 15-15 42-32 36-7-3-13-1-13 3 0 5 7 12 16 15 20 8 9 26-17 26-10 0-19 5-19 10 0 12-2 11 71 15 56 3 56 2 57-26 1-35 9-49 28-49 17 0 19 27 2 33-10 3-10 7-1 18 10 12 7 19-17 39-17 14-30 30-30 37 0 15-31 17-45 4-6-5-19-5-31-1-18 7-20 16-20 82 1 70 2 73 24 70 26-4 29 12 5 30-10 7-18 20-18 28 0 9-10 15-25 16-29 1-90 30-90 43 0 19 52 22 73 4 14-13 21-15 24-5 7 20 20 14 44-20 13-17 17-28 10-23-9 5-12 3-9-6 3-8 14-15 26-17 11-2 26-10 32-18 14-15 50-19 50-5 0 5-6 13-13 19-15 13-20 61-8 76 13 15-3 41-18 31-7-4-11-16-9-27 2-12-2-23-8-25-15-5-80 63-99 104-9 18-20 33-25 33-6 0-10 5-10 10 0 6 6 10 13 10 8 0 22 9 32 20s24 20 31 20c8 0 16 11 20 25 7 30 24 33 24 4 0-11-13-32-30-46-16-13-30-34-30-45 0-18 5-20 39-15 22 3 44 0 50-6 8-8 11-8 11 0 0 7-4 15-10 18-12 8-13 85-1 85 5 0 7 8 4 19-4 17 1 18 49 17 44-1 53-4 52-18zm-4832-2c4-6 11-6 21 2 16 14 125 14 133 1 3-5 0-9-5-9-6 0-11-5-11-12 0-6 9-3 20 7 19 18 20 17 20-3 0-11 5-24 10-27 15-9 42 15 36 31-3 7 2 15 10 18 27 10 120 6 131-5 7-7 29-12 51-12 33 0 40-4 52-31 8-17 13-38 12-47-2-9 3-19 11-22 16-6 71-106 62-115-3-3-11 0-17 6-7 7-22 12-35 12s-23 5-23 12c0 9-3 9-12 0-10-10-10-15 2-22 12-8 11-10-6-10-11 0-25 5-31 11-8 8-17 8-31 0-12-6-76-11-150-11-109 0-131-3-136-16-3-9-6-56-6-105 0-89 0-89-24-83-42 10-82-58-58-97 7-10 9-25 6-34-4-10 0-15 15-15 23 0 26-7 11-30-5-9-5-19 2-27 15-19 6-24-46-26-46-2-67-21-51-47 9-15 25-12 25 5 0 18 4 18 28 6 9-6 34-13 55-16 31-5 37-10 37-30 0-25-14-33-25-15-9 15-19 12-33-11-13-21-13-21 23-15l36 7-2-175c-1-96 1-179 5-184 3-5-1-15-9-22-13-11-14-15-2-29 13-14 15-44 8-128-1-7-8-13-16-13s-15-7-15-16c0-11 6-14 20-9 21 7 24-3 14-42-4-13-13-23-21-23-11 0-13-7-8-29 6-30-8-71-25-71-6 0-10 8-10 18s-16 24-39 35c-48 22-54 22-40-4 8-15 8-24 0-32-16-16-13-27 7-27 10 0 24-11 32-24 11-21 10-31-4-66-12-31-14-46-5-61 6-12 13-18 17-15 3 4 1 11-5 17-14 14 32 89 54 89 8 0 11 5 8 11-8 12 13 69 25 69 10 0 20-37 20-72 0-23-4-28-25-28-14 0-25-4-25-10 0-5 11-10 25-10 33 0 23-23-21-51-19-11-34-25-34-31s-11-23-25-39c-22-27-25-59-5-59 4 0 20 18 35 40 27 39 48 50 60 30 3-5 15-10 25-10 11 0 24-9 30-20s19-20 28-20c10 0 53-29 96-65s83-65 89-65c25 0 77-52 77-77 0-31 29-56 47-41 7 5 22 8 35 6 16-2 24-12 29-36 8-41 19-53 61-67 24-7 33-16 33-32 1-31 9-36 44-28 36 8 40 20 10 28-16 4-20 11-15 23 4 11-2 27-19 44-34 35-25 62 19 58 25-2 32-8 34-28 4-36 75-68 98-45 22 21 31 19 63-16 18-20 31-27 36-20 3 6 11 9 16 6 12-8 12-52-1-60-6-3-10-18-10-32 0-29-25-63-47-63-8 0-11-4-8-10 3-5 17-10 29-10 19 0 25-7 30-37 4-21 13-51 21-68l14-30-2 35c-2 34-1 35 38 35h40l32-90c18-49 34-101 35-115 3-23 0-25-32-22-43 4-80 27-80 49 0 9-3 14-6 10-4-3 2-29 12-57 15-41 16-55 6-70-16-26-16-28 11-32 26-4 26-21 0-26-10-2-26-14-35-25l-17-22-48 25c-26 14-54 29-61 35-7 5-18 15-25 20-45 35-56 36-103 9-48-28-76-73-78-125-1-21-5-24-25-21-16 3-22 1-17-7 4-6 16-11 27-11 34 0 79-29 79-50 0-11 4-20 10-20 5 0 7 7 4 15-7 17 11 21 21 5 4-7 13-6 26 1 16 8 25 7 40-7 10-9 16-20 14-24-3-5 4-25 15-47 11-21 38-94 61-163 22-69 46-131 52-139 9-11 9-15-1-19-8-2-3-15 18-38 33-38 38-65 14-84-12-11-26-10-80 9-118 40-206 105-209 153-1 10-10 27-20 38-16 17-17 24-7 38 30 42 51 125 35 135-5 3-27-12-50-32-35-30-43-44-47-81-3-25-10-46-16-48-5-2-10-10-10-18s-7-14-16-14c-11 0-14 5-10 16 8 21-33 64-61 64-14 0-23 6-23 15 0 17-12 19-26 5s-44 10-46 37c-2 26-28 19-28-7 0-29-16-32-33-6-16 24-13 59 6 84 10 13-1 31-42 67-19 17-22 27-16 53 3 18 11 32 16 32s9 6 9 14c0 9 12 12 42 10 55-4 64 3 33 28-14 11-32 33-40 49-18 35-40 37-56 7-21-41-62-78-87-78-18 0-23 4-18 16 3 8-3 32-13 52s-28 68-40 107c-20 63-21 70-7 81 17 12 74 12 116 0 27-8 59-21 130-54 25-11 55-23 67-27 11-3 24-12 27-20s16-15 29-15 28-5 34-11c14-14 106 16 162 54l44 30-24 19c-13 11-37 31-53 44-33 27-48 24-23-4 10-10 17-21 17-24 0-9-147-18-180-11-20 3-36 15-42 29-15 32-37 31-30-1 4-23 2-25-29-20-95 16-150 29-207 52-61 25-74 25-78 0-1-7-3-16-5-22-2-5 4-24 13-40 16-30 21-83 19-209-1-53-3-58-21-53-11 3-22 1-25-3-9-14 14-60 30-60 25 0 17-30-7-31h-23l23-10 24-9-34-27c-18-16-34-31-36-35s-14 0-28 8c-28 19-23 34 12 34 24 0 32 14 14 25-7 4-5 14 5 27 11 16 12 25 3 35-18 23-37 14-40-18-4-41-28-57-65-43-24 8-28 15-28 46 0 22-8 46-19 60-15 17-19 37-19 88 1 116 2 121 30 114 21-6 24-3 21 12-2 12-13 20-31 22-22 3-27 8-27 31 0 15 5 32 12 39 8 8 8 15-1 25-17 21-14 282 4 297 19 15 63-4 77-35 22-50 45-23 23 28-16 38-57 56-80 37-21-17-35 19-35 85 0 48 3 58 20 62 11 3 20 10 20 15 0 6-9 8-20 5-13-3-20 0-20 9 0 8 4 14 9 14s9 16 9 35-4 35-9 35c-18 0-9 21 14 30 25 11 84 58 77 62-3 2-17 14-32 27-24 21-27 22-26 5 3-33-11-72-28-78-13-5-15 1-11 37 2 23 11 57 20 75 15 28 16 32 2 32-8 0-15-5-15-11 0-7-17-26-37-44-34-29-37-35-26-56 6-13 14-41 17-61 3-29 1-38-12-42-11-4-18-18-19-38-2-29-16-47-36-48-16 0-19 33-5 59 17 30 13 111-6 111-7 0-20 6-30 13-18 13-18 15-1 51 10 21 24 40 32 43 7 3 13 10 13 16 0 16 31 47 48 47 9 0 23-7 33-16 16-14 18-14 28 4 6 10 11 63 12 117 2 84 4 95 16 79 12-17 13-16 13 8 0 15-6 28-12 31-10 3-10 7 0 19 7 9 9 19 5 21-5 3-8 24-8 46 0 23-4 41-9 41s-2 8 7 18 15 31 14 47c-2 36 27 46 50 18 13-16 14-16 9-1-3 10-1 20 4 23s-4 19-20 35c-20 20-30 39-30 59 0 44-10 61-35 61-13 0-26 4-30 9-6 11 44 53 55 46 5-3 12 0 16 6 10 17-16 28-42 19-20-8-23-5-28 18-8 49-7 140 2 146 6 3 19 24 31 46 20 38 20 40 2 40-10 0-23 6-28 13-13 17-17 203-4 211 14 9 25-14 13-26-8-8-6-20 5-42 21-42 20-42 43-21 22 20 26 55 8 73-9 9-7 13 5 18 9 3 17 12 17 20s5 14 10 14c6 0 10 9 10 20 0 27-20 25-52-5-33-31-38-31-38-2 1 21 21 57 33 57 4 0 4-8 0-17-5-15-3-15 16 2 16 16 20 28 15 52-6 29-8 31-37 22-44-13-57-11-57 5 0 19 11 25 45 28 25 2 53 33 41 46-3 3-6 0-6-6 0-7-7-12-15-12-11 0-14 7-9 25 5 19 2 25-11 25-11 0-15 5-11 15 3 8-2 19-11 24-13 7-18 29-21 94-5 96 5 113 41 71 16-18 30-25 40-21 23 9 21 19-6 51-19 22-29 26-50 21-24-6-27-4-27 17 0 14 2 27 4 29 9 9 121 5 128-5zm1218 4c0-17-45-59-70-65-24-6-26-3-27 33l-2 39 50 2c27 0 49-4 49-9zm60 0c0-5-7-10-15-10s-15 5-15 10c0 6 7 10 15 10s15-4 15-10zm156-14c-8-31 17-54 39-36 8 7 15 17 15 22 0 6-7 8-15 4-10-4-15 1-15 15 0 19 4 20 71 16 39-3 75-9 80-14 17-17-1-39-44-57-23-10-62-27-86-39-35-16-47-18-62-8-15 9-19 8-19-3 0-8-7-16-15-20-18-7-20 5-3 22 9 9 9 12 0 12-7 0-21-9-33-21-27-27-32-21-16 21 9 26 9 34 0 37-36 13 29 70 81 72 25 1 27-2 22-23zm-195-88c21-27 24-38 7-38-14 0-58 40-58 52 0 16 32 7 51-14zm74 1c-8-12-35-12-35 0 0 11 22 20 33 14 4-2 5-9 2-14zm-140-24c0-16-8-21-38-23-27-2-39 1-44 13-8 22 14 36 52 33 22-2 30-8 30-23zm555 5c0-5-4-10-10-10-5 0-10 5-10 10 0 6 5 10 10 10 6 0 10-4 10-10zm3880-6c0-8-4-12-10-9-5 3-10 10-10 16 0 5 5 9 10 9 6 0 10-7 10-16zm-3355-34c3-5-1-10-10-10s-13 5-10 10c3 6 8 10 10 10s7-4 10-10zm-655-30c0-11-4-20-10-20-5 0-10 2-10 4s-3 11-6 20c-4 11-1 16 10 16 9 0 16-8 16-20zm-444-6c34-9 30-24-7-24-41 0-77 19-58 31 8 5 20 7 27 4 8-3 25-8 38-11zm363-3c12-8 9-11-12-16-15-4-35-4-44 0-17 7-16 8 2 15 27 11 37 11 54 1zm1453-53c-15-15-26-4-18 18 5 13 9 15 18 6s9-15 0-24zm-1142 2c0-5-5-10-11-10-5 0-7 5-4 10 3 6 8 10 11 10 2 0 4-4 4-10zm2510-45c0-8-7-15-15-15-16 0-20 12-8 23 11 12 23 8 23-8zm-4175-17c3-7 24-14 48-15 123-5 132-7 135-31 2-14 25-39 60-64 31-23 86-66 121-96 46-39 66-50 71-41 12 18 1 39-20 39-30 0-41 23-29 59 8 23 17 31 35 31 13 0 24 4 24 10 0 5 9 14 21 20 38 21 68-31 35-60-8-6-13-17-10-25 7-17-16-31-26-16-5 9-10 8-19-3-10-12-9-18 8-33 24-20 27-39 9-45-13-5 14-34 78-87 130-107 173-148 174-162 0-24 49-69 75-69 24 0 35-17 35-55 0-20-4-23-27-21-16 2-41-3-56-11-35-18-39-15-43 38-6 70-58 86-114 35-14-13-33-26-42-29-22-8-24-37-4-37s86-40 86-51c0-23 45-69 67-69 13 0 23 5 23 10 0 6 7 10 16 10 11 0 15 6 11 20-3 11-1 17 4 14 15-9 49 6 49 23 0 13 3 13 15 3 8-7 15-18 15-26 0-7 9-15 19-19 20-6 23-12 35-68 6-26 5-27-19-21-21 5-27 2-32-15-3-13-11-20-19-17-26 10 10-108 41-134 12-10 14-23 9-57-5-37-3-48 14-66 56-58 64-69 54-79-6-6-5-23 4-46 11-31 10-39-2-52-14-13-17-13-30 4-8 11-14 28-14 38s-10 34-22 54c-20 31-27 34-55 29-29-5-33-2-49 30-9 20-36 49-61 66-41 29-43 31-28 52 30 43 9 64-45 46-29-11-34-8-115 66-52 47-85 85-85 97 0 10-4 17-8 14-11-7-62 41-62 59 0 7-6 16-12 19-7 3-3 3 10 0 16-4 22-1 22 11s6 15 23 10c12-3 17-3 11 2-6 4-25 29-42 55-39 57-67 78-104 78-15 0-30 5-33 10-3 6-12 10-18 10-8-1-7-5 3-13 8-7 22-21 30-31 15-19 14-19-13-2-15 10-30 29-33 42s-20 36-37 50c-26 22-30 32-30 72 0 26-2 39-4 30-3-10-8-18-13-18-13 0-22 37-15 60 8 25-10 50-37 50-10 0-21 7-24 15-4 8-14 15-24 15-11 0-22 5-25 10-9 15 17 80 33 80 8 0 12 9 10 23-2 13-10 22-21 22-38 0-65 99-31 112 15 6 15 7-1 19-9 7-14 17-10 23 9 15 25 14 30-1zm4385-13c0-8-7-15-15-15s-15 7-15 15 7 15 15 15 15-7 15-15zm-3326-66c20-49 20-55 1-39-8 7-15 18-15 24s-6 23-14 38c-11 22-12 26-1 22 7-3 21-23 29-45zm896 26c0-8-7-15-15-15-16 0-20 12-8 23 11 12 23 8 23-8zm2214-15c16-32 11-35-28-20-16 6-26 17-26 30 0 32 36 25 54-10zm256 0c0-19-46-192-72-269-23-69-36-95-50-99-16-4-19-11-13-38 4-25-1-46-20-83-14-28-25-57-25-66 0-8-3-15-7-15-5 0-21-23-36-50-16-28-32-50-38-50-5 0-9-5-9-12 0-6 8-4 19 6 38 34 76-14 46-60-14-22-14-25 0-30 9-4 23-21 32-38 16-30 16-31-3-16-10 8-27 25-36 36-22 27-55 36-62 18-7-17-40-18-53-1-5 6-15 31-22 55-9 32-16 42-27 38-9-3-36-6-60-6-25 0-44-5-44-11 0-7 9-9 23-6 27 7 52-6 45-25-3-7-25-27-48-43-35-24-45-27-61-17-29 18-44 14-60-15-32-62-75-84-168-84-36-1-81-7-99-15-18-7-57-16-85-20l-52-6 35 30c20 18 47 31 62 32 15 0 31 6 35 14s42 33 83 56c77 43 116 76 138 118 15 29 16 78 2 87-7 4-7 13 0 26s7 19 0 19c-15 0-52 39-45 50 5 8 99 82 204 160 90 67 211 171 211 181 0 18 42 55 47 41 3-8 18-2 44 20 83 69 125 95 146 94 13-1 23-3 23-6zm962-2c-9-9-15-9-24 0s-7 12 12 12 21-3 12-12zm-3009-34c-5-14-25-19-36-8-3 4-2 15 4 26 8 15 13 17 24 8 8-6 11-18 8-26zm-393 12c0-8-4-17-8-20-13-8-35 11-28 23 10 16 36 14 36-3zm470-16c0-12-28-25-36-17-9 9 6 27 22 27 8 0 14-5 14-10zm-320-51c0-10 10-28 23-41 29-30 49-75 37-83-16-10-11-23 7-21 9 0 22-10 29-23 10-20 9-33-7-75-10-28-24-59-29-68-13-23-13-51 1-46 6 2 26 42 46 88 19 47 40 94 45 105 6 11 10 37 10 57-1 21 2 38 7 38 6 0 10-50 9-114 0-110-1-116-24-131-13-8-24-23-24-32 0-8-10-26-22-38-26-25-56-67-100-139-20-33-33-45-40-38-13 13-2 32 18 32 8 0 14 10 14 25 0 18-5 25-20 25-11 0-20 5-20 10 0 6 14 10 30 10 36 0 70 31 70 65 0 23-2 24-25 13-14-6-25-15-25-20s-4-7-9-4c-16 10-9 56 11 71 28 19 13 38-23 31s-40 16-8 50c16 17 19 29 14 53-4 17-13 31-21 31-11 0-14 17-14 79 0 43 3 93 7 111 6 31 7 32 20 15 7-11 13-27 13-36zm500 11c0-5-4-10-10-10-5 0-10 5-10 10 0 6 5 10 10 10 6 0 10-4 10-10zm-2690-53c0-25-17-47-37-47-18 0-16 17 5 45 22 31 32 31 32 2zm2525 13c12-20-18-70-42-70-23 0-32 23-13 35 6 3 10 15 10 26 0 20 34 27 45 9zm-105-9c0-12-20-25-27-18s6 27 18 27c5 0 9-4 9-9zm-1830-17c0-8-5-12-10-9-6 4-8 11-5 16 9 14 15 11 15-7zm-810-24c0-5-4-10-10-10-5 0-10 5-10 10 0 6 5 10 10 10 6 0 10-4 10-10zm2970 0c0-5-5-10-11-10-5 0-7 5-4 10 3 6 8 10 11 10 2 0 4-4 4-10zm-460-4c0-3-4-8-10-11-5-3-10-1-10 4 0 6 5 11 10 11 6 0 10-2 10-4zm-2586-16c34-13 33-38-1-51-24-9-30-7-46 12-13 16-15 25-6 35 14 17 20 17 53 4zm293-42c-3-8-6-5-6 6-1 11 2 17 5 13 3-3 4-12 1-19zm2743-27c13-25 13-27-6-46-15-15-18-15-35 1-19 17-25 45-12 57 13 14 43 7 53-12zm-2740-6c0-8-4-15-10-15-5 0-10 7-10 15s5 15 10 15c6 0 10-7 10-15zm-520-50c0-7 8-18 18-24 13-8 15-14 6-27-15-25-33-29-41-7-4 10-13 23-22 29-8 6-12 18-8 28 8 20 47 21 47 1zm5970-40c0-8-4-15-10-15-5 0-10 7-10 15s5 15 10 15c6 0 10-7 10-15zm-4440-185c0-5-5-10-11-10-5 0-7 5-4 10 3 6 8 10 11 10 2 0 4-4 4-10zm676-27c-10-10-19 5-10 18 6 11 8 11 12 0 2-7 1-15-2-18zm2059-90c-11-16-14-34-10-53 6-27 2-31-50-62-108-63-100-61-103-33-2 14-14 33-28 41-13 9-24 20-24 24 0 5 20 16 45 26 41 15 45 20 45 50 0 34 5 38 45 35 12-1 32 3 45 8 16 6 19 10 9 10-29 1-29 28-1 50l27 22 8-47c6-36 4-52-8-71zm-1763 82c0-5-5-11-11-13s-11 4-11 13 5 15 11 13 11-8 11-13zm533 4c10-15-1-23-20-15-9 3-13 10-10 16 8 13 22 13 30-1zm117-34c-3-39-15-55-40-55-8 0-12 12-11 33 3 55 9 68 32 65 19-3 22-8 19-43zm-3170 20c0-5-5-11-11-13s-11 4-11 13 5 15 11 13 11-8 11-13zm2606-66c4-19-26-33-42-20-6 5-15 9-21 9-18 1-16 20 2 25 32 9 58 3 61-14zm467 11c3-5 2-10-4-10-5 0-13 5-16 10-3 6-2 10 4 10 5 0 13-4 16-10zm-371-29c3-5-1-14-9-21-13-10-15-9-15 9 0 21 14 28 24 12zm-2434-41c0-5-2-10-4-10-3 0-8 5-11 10-3 6-1 10 4 10 6 0 11-4 11-10zm2100-20c0-5-7-10-16-10-8 0-12 5-9 10 3 6 10 10 16 10 5 0 9-4 9-10zm-1687-51c21-7 43-21 48-31s15-18 22-18 27-13 46-29c29-25 32-33 26-60-7-34-8-34 65-31 39 1 56-5 115-46 39-26 71-48 73-50 2-1-3-13-12-26-14-22-14-26 0-47 10-13 22-20 31-16 9 3 37 3 63-1 47-6 81-30 138-99 16-20 26-25 34-17 15 15 36 4 52-27 13-24 33-203 28-245-1-10 3-25 9-32 13-16 26-154 15-154-17 0-115 52-131 70-10 11-21 17-26 14-5-2-43 22-84 56-93 73-110 83-136 75-17-6-19-3-14 18 5 17 2 26-10 31-11 4-14 12-10 26 6 18 3 20-20 14-21-5-32-1-53 22-15 16-37 36-48 44-12 8-32 31-45 50s-48 58-76 87c-29 28-55 64-59 80-3 15-12 47-20 71-8 23-14 52-14 64s-6 29-13 37c-16 19-51 140-43 148 3 3 1 15-5 25-9 16-8 19 3 15 7-3 30-11 51-18zm1933-6c-10-10-19 5-10 18 6 11 8 11 12 0 2-7 1-15-2-18zm374 6c0-5-7-9-15-9-15 0-20 12-9 23 8 8 24-1 24-14zm88-96c5-17-26-29-40-15-6 6-7 15-3 22 9 14 37 9 43-7zm1402-37c0-3-4-8-10-11-5-3-10-1-10 4 0 6 5 11 10 11 6 0 10-2 10-4zm-30-21c0-8-6-15-13-15-8 0-32-17-54-38s-72-60-112-86l-71-47-75 15c-121 25-125 29-104 111 10 39 15 45 45 51 18 3 55 3 81-1 26-3 68-7 92-7 43 0 44-1 20-14-39-21-146-55-165-52-23 4-42-28-26-44 10-10 16-10 30 0 9 7 24 15 32 18s48 19 88 36c59 23 76 27 88 17s21-7 47 18c54 51 97 68 97 38zm-4221-76c-24-18-24-18-27 8-3 18 3 32 15 40 16 12 19 11 27-8 8-17 5-24-15-40zm5021 38c27 10 31 9 41-9 12-21-1-38-28-38-21 0-15-21 8-27 20-6 21-10 15-142-4-75-6-159-6-188 1-70-13-95-48-87-21 4-24 3-12-5 13-10 13-13-2-22-22-12-24-31-3-23 8 4 15 1 15-6 0-6-8-10-17-8-10 1-23 0-28-4-6-3-33-8-60-9-46-3-50-2-53 20-3 20 0 23 17 18 25-6 26 1 6 30-15 22-11 52 9 65 8 5 7 8-1 8-20 0-44 56-42 97 1 21 1 96-1 166-1 71 0 131 3 133 2 3 17-1 32-8 25-11 29-10 46 11 11 13 19 29 19 37 0 10 7 9 29-4 25-14 35-15 61-5zm-2292-36c3-8-1-12-9-9-7 2-15 10-17 17-3 8 1 12 9 9 7-2 15-10 17-17zm2082-71c0-5-5-10-11-10-5 0-7 5-4 10 3 6 8 10 11 10 2 0 4-4 4-10zm-986-27c4-5 17-9 29-10 47-5 87-16 87-24 0-7-43-40-154-115-19-14-35-18-42-13-7 6-21 2-37-11-27-21-57-18-57 7 0 16 47 63 64 63 7 0 17-5 24-12 9-9 13-4 18 20 5 22 12 32 25 32 12 0 19 7 19 20 0 11-7 20-15 20s-15 7-15 15c0 16 40 21 54 8zm-4058-30c-10-10-19 5-10 18 6 11 8 11 12 0 2-7 1-15-2-18zm194-83c0-5-4-10-10-10-5 0-10 5-10 10 0 6 5 10 10 10 6 0 10-4 10-10zm4785-12c14-6 25-17 25-25 0-7 5-13 10-13 6 0 3-11-6-25-16-24-15-25 4-25 25 0 35-25 17-40-15-12-35-6-35 11 0 5-9 18-20 29s-20 29-20 39c0 11-4 23-10 26-13 8-13 35 0 35 5 0 21-5 35-12zm377-13c0-5-5-11-11-13s-11 4-11 13 5 15 11 13 11-8 11-13zm-4697-86c10-15-1-23-20-15-9 3-13 10-10 16 8 13 22 13 30-1zm885-69c0-10 8-32 18-49 12-23 24-31 45-31 17 0 27 5 27 14 0 22 19 30 36 15 13-10 13-14 0-28-14-15-13-20 4-48 18-29 22-31 52-23 26 8 36 6 53-10 12-11 25-20 29-20s32-20 60-45c29-25 58-45 65-45 6 0 11-7 11-15s6-15 13-15 40-25 72-55 68-55 79-57c26-4 32-33 12-54-11-11-16-34-16-77v-62l55 3c65 4 71-4 55-69-6-24-11-55-11-67 1-16-6-26-19-29-24-6-26-26-5-43 28-24 3-30-121-30h-125l-92 63c-129 89-130 90-52 11 39-38 73-65 77-60 7 10 87-38 130-79 25-23 34-44 52-126 3-16 15-29 27-32 18-5 19-9 9-27-6-12-9-28-6-35 2-7-2-16-10-19-10-4-14-24-14-79 0-61-4-77-20-92-23-20-56-15-91 15l-24 20 23 6c18 5 22 14 22 43 0 65-39 80-87 33-26-26-40-29-95-23-17 2-70 57-106 109-45 67-73 171-52 197 16 19 5 49-16 41-11-4-20 6-33 37-30 71-34 97-16 118 10 10 14 23 10 28-4 7 6 11 25 11 25 0 31 4 26 15-4 13-2 14 14 5 26-14 26 2 0 25-33 30-23 36 53 33 46-2 72-7 72-15 0-6 3-15 8-19 4-4 7 0 7 9 0 20 21 22 38 5 9-9 12-9 12 0 0 6-12 19-26 29s-45 34-69 53-56 44-71 55c-55 41-94 84-94 104 0 12 5 21 10 21 16 0 12 14-11 39-12 13-19 30-16 42 3 10 1 19-5 19-5 0-17 7-25 16-12 12-13 18-5 23 9 5 10 33 6 96-6 94 1 159 17 150 5-4 9-15 9-25zm2516-4c3-8 14-16 25-19 26-7 26-62 0-77-13-7-22-7-26 0-12 20-23 10-30-27-3-21-14-49-23-63s-15-35-13-48c2-17-3-25-18-29-25-6-26-12-6-27 17-12 21-1-68-181-16-33-34-66-39-72-20-25-308-263-318-263-5 0-10 5-10 10 0 6-4 10-9 10-6 0-9-11-8-23 2-25-29-54-248-232-54-44-121-99-149-122-27-24-53-43-58-43-12 0-10 28 6 90 15 62 40 170 56 245 22 98 31 108 402 435 9 8 37 31 61 50 23 19 50 49 57 65 8 17 24 32 34 34 25 4 43 22 48 47 2 10 12 19 23 20 35 2 64 16 70 33 3 9 20 26 37 38 18 12 67 54 108 92 41 39 79 71 83 71s10-6 13-14zm-2278-24c3-21 0-24-30-26-7-1-16-5-20-11-13-18-19 4-7 27 23 43 52 48 57 10zm-908-82c0-5-4-10-10-10-5 0-10 5-10 10 0 6 5 10 10 10 6 0 10-4 10-10zm2780-135c0-8-6-15-14-15-17 0-28 14-19 24 12 12 33 6 33-9zm-82-73c2-7-3-12-12-12s-16 7-16 16c0 17 22 14 28-4zm1692-8c0-8 5-14 10-14 6 0 10-13 10-30 0-27-3-30-31-30-29 0-31 2-25 28 4 15 8 36 10 47 5 27 5 27 16 20 6-3 10-13 10-21zm-1210 6c0-5-4-10-10-10-5 0-10 5-10 10 0 6 5 10 10 10 6 0 10-4 10-10zm-1830-30c0-5-4-10-10-10-5 0-10 5-10 10 0 6 5 10 10 10 6 0 10-4 10-10zm3250-15c0-8-7-15-15-15s-15 7-15 15 7 15 15 15 15-7 15-15zm-2005-5c3-5 1-10-4-10-6 0-11 5-11 10 0 6 2 10 4 10 3 0 8-4 11-10zm-1221-72c16-26-11-47-51-41-32 5-48 33-19 33 8 0 17 7 20 16 7 19 35 15 50-8zm881 2c0-7-6-15-12-17-8-3-13 4-13 17s5 20 13 18c6-3 12-11 12-18zm2593 8c22-22 13-37-28-48-45-12-60-7-60 19 0 14 24 28 71 40 3 0 10-4 17-11zm-2730-115c-5-25-28-28-28-4 0 12 6 21 16 21 9 0 14-7 12-17zm186-8 29-6-44-45c-24-25-52-50-61-55-16-9-18-4-18 40 0 54 20 85 49 77 9-2 29-7 45-11zm135-47c0-7-32-40-71-73s-83-81-99-106c-33-53-47-59-145-59h-71l-7-67c-9-84-14-93-103-186-39-41-79-87-89-101-12-19-20-24-28-16-7 7-7 16 1 30 9 14 10 27 2 49-8 23-7 36 5 60 14 27 20 30 47 24 29-6 30-5 18 15-11 18-9 25 16 59 15 21 36 47 47 58 34 37 95 120 112 152 9 18 18 58 21 89 2 31 8 61 13 66s27 8 48 6l39-3-3-47c-1-27 1-48 6-48s26 16 48 36c63 58 95 74 147 74 31 0 47-4 46-12zm-1724-28c3-5 1-10-4-10-6 0-11 5-11 10 0 6 2 10 4 10 3 0 8-4 11-10zm4174-44c19-23-3-66-34-66-21 0-25 5-25 28 0 45 35 68 59 38zm-374-76c0-22-39-19-43 3-3 15 1 18 20 15 12-2 23-10 23-18zm98-37c4-18 1-32-9-39-8-6-12-18-9-26 3-7-1-22-9-33-12-17-17-18-41-7-21 10-26 18-22 34 4 14 0 26-11 34-16 12-15 14 6 30 13 9 21 22 18 29-6 16 31 25 55 13 9-4 19-20 22-35zm77-13c11-7 6-10-20-10s-31 3-20 10c8 5 17 10 20 10s12-5 20-10zm-210-15c0-8-9-15-20-15s-20 7-20 15 9 15 20 15 20-7 20-15zm-280-13c0-19-42-150-57-176-7-14-12-14-37-1-24 13-31 13-57 0-29-15-39-48-19-60 6-3 26-1 45 6s37 10 41 7c6-7-64-156-79-165-11-7-57 36-57 54 0 15-9 16-29 4-9-6-21-5-32 2-60 37 5-48 70-93l22-15-35-39c-20-21-36-42-36-46s-10-15-21-26c-16-14-23-15-26-6-6 17-78 15-93-3-12-14-11-29 5-67 9-23-78-79-210-134-55-23-176-73-269-112-93-40-172-69-177-66s-2 22 7 42 18 42 20 48c3 7-6 9-26 6-16-2-30-8-30-13s-7-9-15-9c-32 0-63-24-83-66-12-25-22-52-22-60 0-23-33-61-48-56-7 2-10-2-6-11 7-20-38-54-151-112-158-82-194-105-222-141-26-35-26-36-9-71 20-42 17-48-21-36-33 11-41 38-18 63 30 34-3 32-71-4-64-33-69-34-97-20-16 9-40 13-53 10-20-5-24-3-24 17 0 13 4 27 9 32 5 6 26 63 47 128 39 125 78 191 120 207 13 5 27 16 30 24 3 7 24 22 47 32s45 23 49 28c4 6 10 7 14 3s13 1 20 11c11 15 182 128 253 167 59 33 101 70 101 89 0 11 7 34 15 50 8 15 15 36 15 46 0 22 25 44 40 35 17-10 11-44-10-55-11-6-20-18-20-26 0-12 7-14 29-9 18 4 32 2 37-6 4-7 3-10-3-6s-14-1-17-10c-4-10-1-20 9-25 8-5 15-19 15-31 0-23 66-97 87-97 15 0 17-16 3-25-6-4-8-10-5-15 10-16 33 1 46 33 30 79 42 97 61 97 17 0 19 4 13 27-9 39 32 138 78 187 37 39 39 40 53 22 8-11 14-30 14-42 0-26 47-49 79-39 35 11 29 68-11 98-27 22-30 28-19 41 8 9 17 16 21 16 5 0 45 23 89 50 44 28 84 50 88 50 3 0 14 6 22 14 31 27 92 56 120 56 20 0 31 7 39 25 7 14 18 25 26 23s21 5 28 14c12 15 262 146 281 148 4 0 7-8 7-18zm-4923-58c-9-9-28 6-21 18 4 6 10 6 17-1 6-6 8-13 4-17zm4438 5c0-7-8-15-17-17-18-3-25 18-11 32 10 10 28 1 28-15zm765-24c0-8-4-15-10-15-5 0-10 7-10 15s5 15 10 15c6 0 10-7 10-15zm-70-93c0-37-5-73-11-79-13-13-5-43 10-43 5 0 16 7 25 15 21 21 26 19 26-14 0-16-7-35-16-42-14-11-18-11-29 5-11 15-16 15-34 4-27-16-26-20 4-48 23-22 25-29 22-112-1-49 1-92 5-94 4-3 2-17-4-32-5-15-11-38-12-52-1-24-29-37-32-15-5 33-19 55-35 55-11 0-19-2-19-4s-3-12-7-22c-5-14-2-16 21-12 21 4 26 2 21-10-3-8 2-23 11-33 10-11 12-19 7-19-17 0-43-65-43-107 1-34 2-36 14-20 7 9 21 17 30 17 10 0 16 8 16 24 0 13 6 29 14 35 12 11 14-4 13-98-2-102-4-110-22-113-11-2-21-11-23-21-3-15 0-18 17-12 21 6 21 6 19-181l-3-187-34-3c-19-3-38-10-42-16-12-18-74-14-94 6-16 15-16 20-4 43 8 14 22 28 32 31 9 2 17 7 17 11 0 13-24 31-42 31s-22 15-21 100c1 61 3 71 13 65 6-4 17-1 25 5 12 10 16 9 20-4 3-9 7-23 10-32s14-18 25-21 20-9 20-14c0-17 19-9 25 11 4 14-3 29-24 52-17 18-26 35-21 38 15 9-3 25-31 27-19 1-30-5-38-23-13-30-31-23-24 9 8 37 33 87 43 87h18c4 0 7-10 7-22s6-23 13-25c8-3 12 6 12 29 0 25-6 36-24 44s-28 8-35 1c-8-8-14-8-22 0s-3 16 20 27c35 19 38 28 14 47-13 11-17 11-20 2-9-27-63-7-63 23 0 6 14 25 30 42 32 34 38 52 17 52-18 0-19 204-1 238 9 17 10 31 3 43-7 14-4 21 12 29 17 10 20 18 15 45-6 32 9 79 56 170 27 52 87 135 99 135 5 0 9-31 9-68zm-2302 11c-10-57-80-309-94-337-19-40-18-52 4-33 10 10 22 14 25 10 12-11 8-173-4-196-7-12-42-53-80-92-68-70-114-125-106-125 5 0 132 130 230 234 44 48 68 66 77 61 10-6 12-4 8 7-4 10 9 31 38 59 44 44 66 47 46 6-6-12-21-53-32-92-12-38-28-82-36-97-8-14-14-35-14-47 0-17-22-88-48-151-3-8-6-32-7-52-1-28 3-38 18-42 24-6 13-26-14-26-16 0-18-5-13-25 5-22 2-26-25-31-21-5-31-12-31-25 0-11 7-19 15-19s15-5 15-11-7-9-15-5c-11 4-15-2-15-20 0-16-8-27-22-33-29-11-82-68-54-58 10 4 30 16 45 28 70 55 192 139 201 139 7 0 7-7 0-21-7-11-9-27-6-35s1-14-4-14c-8 0-70-119-70-134 0-2-13-34-30-69-34-75-36-83-15-91 24-9 18-29-6-23s-37-4-58-45c-7-14-39-44-70-65s-58-40-61-43-17-11-32-19c-22-11-30-12-43-1-15 12-17 10-19-22-1-9-47-47-109-87-89-59-111-70-127-61-13 7-27 7-46 0-18-7-31-7-37-1-7 7-15 7-24-1-10-8-18-6-33 7-26 23-26 39 0 32 23-6 24-3 11 22-7 13-4 25 13 46 22 27 26 28 51 17 24-11 31-11 44 2 14 15 12 16-17 16-42 0-41 19 2 47 24 16 36 19 45 10 16-16 26 0 11 18-10 12-8 16 15 25 24 9 32 7 52-12 19-18 26-20 33-9 5 9 18 12 38 8 18-4 37 0 51 9 40 29 18 114-31 114-10 0-18 3-18 6 0 9 79 78 149 129 63 46 84 69 54 58-10-4-31-19-47-35-17-15-35-28-42-28-14 0-23 42-19 87l3 33-31-26c-18-15-36-33-40-40-4-8-17-14-27-14-13 0-20-7-20-20 0-26-45-49-62-32-9 9-7 17 7 33 19 20 19 21-14 85l-34 65 24 27c13 15 46 51 73 80 46 51 47 54 30 68-18 15-18 15 4 11 16-4 31 3 48 20 21 21 27 38 31 99 3 41 10 74 15 74s4 8-1 19c-13 24-4 32 25 25 23-6 24-3 24 38 0 35 5 49 28 70 15 14 35 28 46 32 16 5 16 9 5 22-12 15-17 13-44-18-25-30-39-36-85-41-52-6-93 4-77 19 9 9-12 34-29 34-8 0-14-6-14-14 0-7-7-19-15-26-19-16-4-30 33-30 25 0 31-27 7-36-17-7-21-34-5-34 6 0 19 6 30 12 15 10 22 10 32 0 9-9 9-12 0-12-7 0-12-8-12-18 0-23-126-166-151-170-15-3-18-9-13-28 8-32-15-40-55-20-38 20-60 20-82 0-21-19-54-10-102 29l-28 22 116 130c63 72 122 131 130 133 9 2 12 8 9 14-4 6 1 8 14 4 20-7 30 7 36 48 1 7 55 74 121 150 83 96 131 142 155 152 29 12 36 20 35 41 0 22 6 28 33 35 31 8 42 23 22 30-15 5 58 88 77 88 11 0 14-7 11-27zm2565 10c3-5-1-13-8-20-10-10-14-9-18 1-8 21 15 37 26 19zm-3433-13c0-5-4-10-10-10-5 0-10 5-10 10 0 6 5 10 10 10 6 0 10-4 10-10zm-1385-60c3-5 1-10-4-10-6 0-11 5-11 10 0 6 2 10 4 10 3 0 8-4 11-10zm1467-55c0-5-5-11-11-13s-11 4-11 13 5 15 11 13 11-8 11-13zm2898-49c0-3-4-8-10-11-5-3-10-1-10 4 0 6 5 11 10 11 6 0 10-2 10-4zm-3470-32c0-9-5-14-12-12-18 6-21 28-4 28 9 0 16-7 16-16zm-1200-124c0-3-4-11-9-19-11-17-31-6-31 18 0 9-13 30-30 46-16 16-30 37-30 47 0 13 14 4 50-34 28-29 50-55 50-58zm3682 24c-3-19-16-31-51-46-25-11-54-27-63-35-26-23-22-5 6 28 13 15 26 32 28 36 5 13 52 42 69 42 12 1 15-6 11-25zm-3588-30c9-24 7-34-8-34-14 0-28 34-18 44s20 6 26-10zm1153-51c58-32 108-63 110-70 3-7 10-13 17-13 6 0 17-9 24-20 7-12 17-18 23-14 6 3 38-2 73-12 55-16 64-22 80-55 14-28 18-58 17-115-1-61 2-81 16-96 17-19 17-20 0-33-10-7-17-25-17-44 0-41-16-71-37-71-9 0-54 18-99 40-46 22-90 40-98 40-9 0-16 4-16 9 0 4-20 19-45 32-44 23-45 23-59 4-20-27-20-44 2-52 31-11 62-46 62-70 0-30 54-65 87-57 17 5 23 2 23-9 0-15 77-57 104-57 37 0 46-24 52-130 11-184 11-181-11-196-18-11-33-7-130 41-117 56-165 95-185 148-6 17-19 47-27 64-15 30-15 34 0 51 23 25 21 30-6 25-17-4-26 2-35 22-7 14-12 34-12 44 0 20-104 80-117 68-4-4-1-22 6-40 27-68 71-222 66-235-9-25-151 22-374 126-19 9-36 23-38 31-3 12-19 17-58 18-48 2-52 1-48-17 3-11 0-20-6-20s-11 5-11 10c0 6-7 10-15 10s-15-4-15-10c0-16-32-11-45 7-9 12-9 24-2 43 9 24 6 31-26 64-20 20-37 44-37 52 0 9-11 25-25 36-22 17-55 67-55 82 0 2 8 7 18 9 10 3 6 5-10 6-23 1-28 6-28 27s-4 25-19 21c-15-3-20 2-25 24-7 35-47 59-70 40-11-9-15-8-20 4-3 9-18 15-41 15h-35l-1-97c-1-54-1-101 0-105 0-5-5-8-12-8-12 0-21-12-45-62-2-5 10-8 26-8 39 0 60-24 44-51-7-10-12-28-12-39 0-12-7-20-16-20s-29-11-46-25c-16-14-42-25-56-26-15 0-43-7-62-15l-35-14 54 6c44 5 52 4 45-8-15-23-104-101-110-95-6 5-7 38-4 137 1 36 1 67 0 70s-4 63-6 134c-3 84-1 133 7 142 7 9 7 19-1 34-13 25-3 111 11 89 4-7 12-10 16-5 4 4 0 13-10 20-9 7-17 20-17 29 0 13 6 14 32 6 41-11 38-12 38 6 0 8 9 31 21 51l20 37-30-6c-18-4-31-2-31 3 0 6-11 20-25 32s-25 25-25 29c0 12 37-2 60-23 18-17 24-18 38-7 9 7 19 15 21 16s-2 9-9 18c-20 25 7 19 44-10 18-14 43-25 54-25 20 0 22-5 22-68 0-64-1-68-22-67-44 0-33-20 10-22 24-1 49-7 56-12 8-7 24-7 45-1 44 12 63 29 56 51-5 15 1 17 40 17 33 0 52-5 66-19 10-10 25-19 33-19 20 0 41-30 39-54-1-12 3-6 9 12 12 35 21 38 65 21 55-20 103-60 103-86 0-22 3-24 26-19 17 5 34 0 54-14 15-11 30-20 33-20s33-16 67-35 66-35 70-35c8 0 171-100 200-123 18-14 58-37 65-37 3 0 5 7 5 16 0 8 7 22 15 30s11 21 8 30 7 28 27 49 28 35 21 40c-14 8-91 123-91 135 0 5-13 24-29 42-32 37-53 142-26 132 17-7 57 14 50 26-9 15 14 50 33 50 14 1 13 4-5 19-22 19-29 31-17 31 3 0 53-26 111-57zm-175 2c8-19 8-28-2-40-13-16-35-21-26-6 4 5 2 20-3 34-16 42 12 53 31 12zm2578 5c0-26-30-81-41-74-7 4-9 0-5-14 4-11 2-23-4-27-19-12-44 13-46 47-2 30 2 35 39 54 50 26 57 27 57 14zm-22-163c2-10-3-17-11-17-18 0-39 24-30 34 12 12 38 2 41-17zm1512-9c0-16-3-19-11-11-6 6-8 16-5 22 11 17 16 13 16-11zm-5600-43c0-8-4-15-10-15-5 0-10 7-10 15s5 15 10 15c6 0 10-7 10-15zm4975-47c-12-70-41-125-79-150-25-16-34-28-30-40 5-16-25-66-64-107-27-29-44-61-39-76 7-17-12-32-22-16-5 7-18 0-40-19-33-31-51-38-51-20 0 6 7 10 15 10 19 0 19 2-6 46-20 36-20 38-3 70s17 34 0 53-17 20 3 38c29 25 26 50-9 68-38 20-38 28 1 42 28 11 36 10 59-7 34-24 40-25 40-5 0 8-9 15-20 15-31 0-24 24 13 39 17 8 75 34 127 58 52 23 99 43 103 43 5 0 6-19 2-42zm-2659-32c8-21-25-66-48-66-16 0-19 4-14 23 4 12 9 29 11 37s4 16 4 18c3 9 43-1 47-12zm894-60c0-19-17-29-37-22-12 5-13 9-3 21 16 19 40 19 40 1zm2386-38c27-27 31-53 8-62-18-7-34 0-34 15 0 6-7 17-15 26-12 12-13 18-4 29 15 18 17 18 45-8zm-981-19c0-8-12-15-30-17-57-6-73-64-30-108 17-17 32-23 44-19 33 10 31-21-5-59-19-20-34-43-34-51 0-9-10-29-22-45-18-24-24-27-36-17-13 10-15 9-10-8 3-11 9-28 13-38 6-13 2-20-13-23-11-3-42-17-68-30-45-22-47-24-19-23 70 3 70-9-3-42-37-16-59-19-102-15-30 3-94 9-141 12l-86 7 34 81c19 44 38 89 43 98 15 26 12 43-9 62-31 28-51 11-51-44 0-45-1-48-41-65-33-16-46-30-70-78-15-33-33-65-40-73-6-8-9-20-6-28 8-19 98-16 122 4 29 24 215 16 215-9 0-5-31-21-69-35-61-24-68-29-64-50 6-32-10-40-45-22-16 8-39 12-51 9-16-4-27 1-37 16-20 28-26 27-46-10l-18-30-31 22c-26 18-35 20-50 11-10-7-25-9-33-6-19 7-31-13-17-30 9-10-1-23-41-58-84-71-100-79-135-69-17 5-34 7-37 3-12-11-5-21 16-24s21-3-3-14c-13-7-53-25-89-42-87-41-189-74-206-68-8 3-14-1-14-10 0-8-8-17-17-21-10-3-38-15-62-26-56-24-123-48-127-45-9 9 96 257 109 258 4 0 13-12 19-27l12-28 4 24c2 13-2 35-9 48-25 46 36 120 141 173 25 13 59 33 75 45 17 11 56 34 88 49 31 16 57 34 57 42 0 22 22 28 37 9 9-14 13-15 13-4 0 8 23 24 51 36 42 18 54 20 70 10 17-10 22-9 34 6 21 30 8 48-34 46-42-3-101 25-101 46 0 8 6 15 14 15s21 2 28 5c8 3 27-6 44-20 48-41 81-42 161-2l70 36-1 54c-1 47 1 53 17 49 11-3 17 1 17 12 0 9 8 16 20 16 11 0 20-5 20-10 0-6 10-15 23-21 12-5 38-21 56-35l35-25 35 41c25 27 61 51 116 75 44 19 88 40 98 46 14 8 23 7 36-5 26-24 41-19 47 13 5 23 16 34 53 49 51 22 66 23 66 1zm-1935-15c0-17-22-14-28 4-2 7 3 12 12 12s16-7 16-16zm-2370-14c0-5-4-10-10-10-5 0-10 5-10 10 0 6 5 10 10 10 6 0 10-4 10-10zm467-15c6-18-23-55-43-55-21 0-38 39-23 56 15 19 58 18 66-1zm2363 0c0-8-4-15-9-15-13 0-22 16-14 24 11 11 23 6 23-9zm1050-11c0-8-4-12-10-9-5 3-10 10-10 16 0 5 5 9 10 9 6 0 10-7 10-16zm-1863-39c35-25 73-45 83-45 29 0 25-16-16-64-44-53-62-51-117 8-57 60-72 93-56 122 7 13 19 24 27 24s43-20 79-45zm781-19c3-13-1-17-14-14-11 2-20 11-22 22-3 13 1 17 14 14 11-2 20-11 22-22zm-2970 2c16-16 15-28-3-28-7 0-18-6-22-14-9-15-77-56-93-56-19 0-10 37 14 59 18 17 30 20 51 15 20-5 26-4 21 5-8 12 0 31 13 31 4 0 12-5 19-12zm118-3c10-24-12-42-46-37-35 5-35 6-12 31 21 24 51 26 58 6zm1574 0c0-8-7-15-15-15s-15 7-15 15 7 15 15 15 15-7 15-15zm3578-29c-5-38-78-29-78 9 0 8 12 18 28 23 33 11 54-2 50-32zm-1498 19c0-8-9-15-20-15-20 0-26 11-13 23 12 13 33 7 33-8zm-825-55c0-22-39-19-43 3-3 15 1 18 20 15 12-2 23-10 23-18zm100-30c0-22-29-18-33 3-3 14 1 18 15 15 10-2 18-10 18-18zm753-8c2-14-2-22-12-22-19 0-28 14-20 35 9 21 28 14 32-13zm-4006-14c-7-7-12-8-12-2 0 14 12 26 19 19 2-3-1-11-7-17zm176-14c-2-11-13-20-26-22-18-3-22 1-22 22 0 15 7 26 18 29 23 5 35-7 30-29zm524-21c-5-27-14-32-44-26-29 5-44 39-27 59 16 19 75-9 71-33zm1603-13c10-11 26-22 36-25 28-9 23-37-11-60-17-11-37-35-45-52-29-60-41-37-36 67 2 44 18 90 31 90 4 0 15-9 25-20zm-1230-3c21-2 31-8 33-21 2-11 14-27 25-36l21-17-23-12c-21-12-21-13-5-25 10-8 15-20 11-29-5-13-1-17 16-16 12 0 34-3 49-7 19-4 36-1 54 10 32 22 86 7 102-28 9-21 17-24 74-23 43 0 77-6 109-20 44-20 48-25 72-95 14-40 40-108 58-151 17-42 29-80 25-84-3-3-24-1-47 6-22 7-57 11-77 10-21-2-48 4-62 13s-52 24-85 33c-33 10-65 22-72 27-6 5-30 9-53 10-22 0-47 6-54 14-8 7-51 32-97 55-114 58-189 110-235 162-49 56-124 181-124 207 0 24 47 30 170 23 47-3 98-6 115-6zm1380 2c4-6 13-8 21-5s11 0 7-10c-3-8 3-31 13-51 14-27 16-37 7-40-7-3-13-8-13-12 0-12 86-71 104-71 8 0 18-5 22-11 8-14-253-277-280-281-12-2-23-14-27-30-9-34-68-100-70-78-1 8-1 18-1 21 1 4 3 47 6 97 4 82 8 96 36 137 17 25 38 45 47 45s13 3 10 7c-4 3 0 14 9 24 13 14 20 16 35 6 24-15 39 1 16 18-15 10-15 15-5 26 7 8 25 30 40 50 25 34 25 36 7 47-10 7-26 12-35 12-11 0-15 6-11 19 2 10 0 25-5 34-13 24 8 57 37 57 13 0 27-5 30-11zm-1285-9c0-5-4-10-10-10-5 0-10 5-10 10 0 6 5 10 10 10 6 0 10-4 10-10zm1440-56c0-17-6-24-20-24-13 0-20 7-20 19 0 11-5 23-10 26-7 4-6 14 1 28l12 21 18-23c11-13 19-34 19-47zm660 6c0-5-7-10-16-10-8 0-12 5-9 10 3 6 10 10 16 10 5 0 9-4 9-10zm1599-46c8-7-31-55-41-52-42 14-26 75 16 62 12-4 23-8 25-10zm-224-4c-3-5-10-10-16-10-5 0-9 5-9 10 0 6 7 10 16 10 8 0 12-4 9-10zm-4395-10c0-5-7-10-15-10s-15 5-15 10c0 6 7 10 15 10s15-4 15-10zm410-21c0-11-7-19-15-19-9 0-15-9-15-24 0-14 7-31 15-40 8-8 15-20 15-26 0-26-31-67-64-85-35-19-47-35-26-35 5 0 7-7 4-15-4-9 3-16 20-21 23-5 31-20 27-46-2-18 20-58 31-56 10 2 13-27 14-122 1-69 2-159 3-200 3-97 3-98-14-76-21 27-27 15-29-51-1-71-21-81-57-28-25 36-39 44-39 23 0-8-16-14-41-15-23-2-47-7-54-13-15-13-45-3-45 16 0 7 10 20 23 29l22 16-24 18-24 18 23 16c19 13 22 23 20 74-6 113-1 153 15 147 8-4 15-2 15 4 0 5-7 15-15 22-10 8-15 30-15 65v53l56-4c39-2 60-8 70-21 13-17 14-17 20 5 3 12 12 22 20 22s11 6 8 15c-4 8-12 15-20 15s-14 5-14 12c0 6-6 3-14-7-12-17-16-17-30-6-19 16-7 36 21 36 9 0 18 5 20 11 5 16-36 25-59 13-15-8-18-6-18 11 0 11-4 20-10 20-5 0-10-18-10-40 0-29-5-42-20-50-19-10-20-8-20 90 0 82 3 102 16 107 8 3 13 11 10 18-2 7 13 25 35 41 38 26 40 27 54 8 13-17 14-17 15-1 0 19 11 22 27 6 7-7 13-7 17-1 7 12-3 42-15 42s2 33 20 46c20 16 51 5 51-17zm1720 11c0-5-4-10-10-10-5 0-10 5-10 10 0 6 5 10 10 10 6 0 10-4 10-10zm2697-6c-3-3-12-4-19-1-8 3-5 6 6 6 11 1 17-2 13-5zm-407-19c6-8 17-13 22-12 25 5 16-20-11-29-46-18-80 13-49 44 16 16 23 15 38-3zm1360 1c0-22-29-41-42-28-8 8-8 15 2 27 16 19 40 20 40 1zm-1145-26c22-35-61-76-94-46-17 16-19 15-24-5-7-25-31-21-35 7-2 15 7 22 41 32 23 7 50 10 59 7 9-4 19-2 23 4 8 14 22 14 30 1zm483-20c15-24 8-40-18-40-22 0-34 28-19 46 15 19 22 18 37-6zm-388 1c0-6-4-13-10-16-5-3-10 1-10 9 0 9 5 16 10 16 6 0 10-4 10-9zm-4230-11c0-5-4-10-10-10-5 0-10 5-10 10 0 6 5 10 10 10 6 0 10-4 10-10zm2490-19c0-6-4-13-10-16-5-3-10 1-10 9 0 9 5 16 10 16 6 0 10-4 10-9zm1330-12c0-5-7-9-15-9-15 0-20 12-9 23 8 8 24-1 24-14zm655-4c0-28-29-25-33 3-3 19 0 23 15 20 10-2 18-12 18-23zm575 5c0-5-7-10-15-10s-15 5-15 10c0 6 7 10 15 10s15-4 15-10zm-2400-20c0-5-4-10-10-10-5 0-10 5-10 10 0 6 5 10 10 10 6 0 10-4 10-10zm1980-44c0-37-16-58-22-29-5 25 3 63 13 63 5 0 9-15 9-34zm-3553-36c47-22 87-40 90-40 2 0 29-11 59-25s58-25 63-25c4 0 16-9 26-20 15-17 17-31 10-115-7-92-8-95-31-95-14 0-24 6-24 14 0 21-20 30-33 17-6-6-18-11-27-11-22 0-80 29-80 40 0 4-9 10-19 13-12 3-33 33-56 81-34 72-43 80-82 79-17-1-16 7 3 28 14 15 15 26 6 59-7 27-7 40 0 40 6 0 49-18 95-40zm846 10c-5-20-33-29-33-10 0 7 25 27 37 30 0 0-1-9-4-20zm2327 10c0-5-2-10-4-10-3 0-8 5-11 10-3 6-1 10 4 10 6 0 11-4 11-10zm-85-10c3-5 1-10-4-10-6 0-11 5-11 10 0 6 2 10 4 10 3 0 8-4 11-10zm-150-17c16-16 18-16 27 0 5 9 18 17 28 17 23 0 26-15 7-27-8-4-22-23-33-41-21-36-66-64-90-55-17 6-20-22-3-33 14-8-69-94-91-93-8 0-28 9-45 20-16 10-39 23-51 28-11 5-27 15-35 23-18 17-87 56-122 70-40 15-29 30 40 53 33 11 68 27 78 35 15 13 19 12 31-4 11-16 17-17 46-5 18 7 67 15 108 19s78 7 82 8 14-6 23-15zm-4103-56c-6-23-9-24-26-12-18 14-18 15-1 41 14 22 19 24 26 12 4-8 5-26 1-41zm3408 43c0-5-4-10-10-10-5 0-10 5-10 10 0 6 5 10 10 10 6 0 10-4 10-10zm-1040-67c-1-30-7-55-18-68-16-19-103-75-116-75-3 0-6 13-6 29 0 24-3 28-19 24-31-8-57-41-43-55 12-12-1-48-18-48s-11 86 8 109c17 21 127 91 143 91 5 0 18 9 29 20 31 31 40 24 40-27zm1260 27c0-5-4-10-10-10-5 0-10 5-10 10 0 6 5 10 10 10 6 0 10-4 10-10zm1090-112c0-93-2-109-15-105-23 9-28-11-5-23 18-10 20-21 20-100v-89l-27-3c-31-3-44-38-23-63 10-12 15-12 33-1 30 18 87 28 87 15 0-24-22-49-44-49-30 0-37-17-29-79 8-73-1-98-47-121-40-20-46-35-40-93 1-13-6-17-27-17-15 0-72-6-126-12-73-9-96-15-93-25 3-7-8-20-27-29-18-9-43-25-56-35-13-11-32-19-41-19-10 0-20-7-24-15-10-27-63-19-83 13-9 15-23 32-31 39-12 10-11 14 3 30 9 10 24 28 33 41 13 17 29 23 67 26 28 2 53 0 56-5 9-15 39 1 39 21 0 21 72 60 110 60 13 0 20 3 17 7-4 3-1 13 7 22s16 24 17 34c5 24 24 21 23-3 0-13 6-20 17-20 13 0 18 8 17 33-1 40-7 51-21 38-9-7-13 1-15 27-2 27 4 42 23 62 29 30 25 58-8 58-12-1-36 5-54 13-30 12-33 12-53-14-12-15-28-27-35-27-8 0-18-7-23-16-7-13-10-14-21 0-11 13-16 13-49-1s-37-14-49 3c-12 16-11 21 4 32 10 7 29 11 43 9 15-3 34 2 49 14 13 10 30 19 37 19 11 0 13 10 8 40l-7 40h51c31 0 52-5 55-13 5-15 87-11 87 4 0 5-4 9-10 9-11 0-14 91-4 127 3 12 15 25 25 28 18 6 18 8-6 27-27 21-33 53-12 62 10 5 10 7 0 12-20 9-15 38 7 52 11 7 20 17 20 22 0 6-9 10-20 10-12 0-20 7-20 16 0 13 7 15 31 10 19-3 38-1 46 6 10 8 17 8 25 0 17-17 48-15 54 2 3 8 12 12 20 9 11-4 14-29 14-115zm-920-6c96-59 120-77 120-87 0-13-94-75-114-75-9 0-16-4-16-9 0-10-128-70-214-100-58-20-75-18-76 11 0 18-35 38-64 38-52 0-63-22-45-89 3-10-10-20-35-28-62-21-69-14-36 39 45 71 107 197 125 255 21 65 47 89 126 118l64 23 55-31c30-17 80-46 110-65zm-3462 68c23-10 42-26 42-35 0-20 5-19 40 7l30 22 28-28c27-27 118-68 192-86 82-20 126-33 134-41 4-4-10-27-32-50-35-38-42-42-56-30-17 14-32 9-22-7 23-37 142-55 171-26 14 15 14 18 0 33-8 10-15 21-15 26 0 4-7 13-16 19-15 11-14 15 4 45l20 34 4-29c3-28 5-29 49-26 37 2 50-2 70-21 13-13 38-33 56-45 31-22 74-86 88-132 4-14 18-37 31-52 25-30 50-96 40-106-4-3-21 0-39 7-52 21-97 24-97 6 0-24-19-17-26 9-8 32-54 52-83 37-16-9-29-7-60 9-22 11-54 20-70 20-19 0-43 11-63 29-18 16-50 36-72 45-45 19-46 19-46 7 0-5 10-11 22-13 33-5 49-43 32-76-18-36-8-44 86-72 41-12 102-30 136-41 80-25 108-25 121 4 10 21 11 21 20-13 8-30 16-36 64-53 69-23 79-34 47-46-29-11-46-41-23-41 11 0 12-5 5-25-7-19-6-25 4-25 7 0 19 6 25 14s26 16 44 20c80 15 97 16 97 6 0-5-5-10-11-10s-8-11-4-29c8-37-21-128-46-141-26-15-73-12-175 9-100 21-297 94-324 121-3 3-22 13-42 22-36 17-38 17-38 0 0-27-20-42-54-42-37 0-64 14-47 24 6 4 9 12 6 17-4 5-8 19-10 31-5 24-22 38-46 38-9 0-22 7-29 15s-21 15-32 15c-17 0-18 2-8 15 11 13 8 19-14 40-26 24-36 65-14 65 16 0 48-31 48-47 0-7 8-16 18-20 9-3 27-15 40-27l23-20 24 29c21 27 22 32 8 47-12 14-14 30-9 79 8 67-2 89-40 89-27 0-38 26-29 72 6 31 4 34-31 47-44 16-154 122-154 149 0 10-11 29-24 41-13 13-27 35-31 49-3 15-8 35-11 45-7 23 19 22 74-3zm2143-23c-3-32-16-56-37-66-20-9-23-14-15-29 7-13 6-25-3-38-7-10-23-39-36-64-50-94-83-141-96-136-9 3-14-1-14-12 0-20-31-41-153-106-73-39-94-46-122-40-19 3-39 12-46 20-6 8-27 14-45 14-19 0-43 5-53 12-15 9-23 9-35-1-22-19-21-61 2-61 10-1 24-16 34-37 10-20 16-38 15-38-23-16-145-75-154-75-7 0-13-4-13-9 0-4-30-22-67-40-38-17-80-39-95-48-22-14-30-15-40-5-9 9-6 12 15 12 15 0 27 5 27 10 0 6-4 10-8 10-5 0-16 6-26 13-17 13-17 15-2 45 10 20 24 32 36 32 23 0 26 10 8 29-11 10-5 19 27 47 22 18 46 34 53 34 6 0 12 4 12 10 0 5 12 16 28 25 34 19 55 33 180 118 55 37 107 67 115 67s31 16 51 35 63 51 94 72c31 20 87 56 123 80 37 24 70 43 74 43s16-9 26-21c16-19 18-19 27-2 8 13 7 22-5 35-14 15-11 19 28 39 28 14 44 18 47 10 6-19 22-12 22 10 0 11 5 19 11 17s10-7 10-11zm1624-86c7-12-12-24-25-16-11 7-4 25 10 25 5 0 11-4 15-9zm-791-20c3-5-8-23-24-41-17-18-30-38-30-46s-12-33-26-55c-19-31-29-39-42-33-9 5-43 7-74 6-52-2-58 0-58 18 0 11-2 20-4 20s-11 3-20 6c-16 6-24-20-8-29 4-2 2-3-4-1-17 4-37-13-30-25 4-6 18-11 30-11 14 0 30-10 40-25 9-14 22-25 29-25 6 0 20-7 30-15 25-18 14-55-16-55-16 0-18-3-9-9 29-18-25-50-203-121-44-17-89-36-100-40-226-97-445-183-451-177-3 3 25 66 62 141 47 95 79 147 106 172 47 42 321 178 523 259 39 15 93 38 120 50 93 41 100 44 127 44 15 1 29-3 32-8zm1026-11c0-5-2-10-4-10-3 0-8 5-11 10-3 6-1 10 4 10 6 0 11-4 11-10zm-3310-15c0-8-4-15-9-15s-11 7-15 15c-3 9 0 15 9 15 8 0 15-7 15-15zm3859-9c9-10 8-16-4-26-13-11-20-11-40 0-29 16-32 27-7 33 31 8 39 7 51-7zm-3191-33c0-76 4-91 25-97 21-5 21-5 2-26-11-13-27-19-38-16-10 2-17 0-14-7 5-17-70-80-89-73-14 5-16 16-10 62 3 31 11 66 18 78 12 24 90 113 100 115 3 1 6-16 6-36zm3546 28c3-5-1-11-9-15-9-3-15 0-15 9 0 16 16 20 24 6zm-4134-31c0-5-4-10-10-10-5 0-10 5-10 10 0 6 5 10 10 10 6 0 10-4 10-10zm4258-1c-2-6-8-10-13-10s-11 4-13 10 4 11 13 11 15-5 13-11zm-4094-109c7 0 21-9 31-20s27-20 37-20c25 0 39-41 31-95-11-83-35-72-91 43-23 48-42 96-42 107 1 18 1 19 11 3 5-10 16-18 23-18zm1096-84v-74l-92-47c-51-26-99-52-106-58-17-14-24-4-27 39-3 51 4 57 155 138 10 5 25 25 35 43s22 33 27 33c4 0 8-33 8-74zm1566 29c12-31-47-137-136-244-40-48-57-61-79-61-15 0-41-11-57-25-34-29-41-30-65-9-10 9-25 14-34 11-20-8-19-27 1-27 14 0 14-1 0-16-21-21-20-38 2-29 37 16 65 18 60 5-8-25-72-49-213-80-77-17-170-37-206-45-76-17-112-19-107-6 10 28 115 170 126 171 6 0 12 7 12 14 0 41 86 132 158 170 32 17 34 17 47 0 11-16 14-15 41 12 31 31 137 76 160 67 8-3 14 0 14 6s6 11 14 11c7 0 19 7 26 15s16 12 21 9 15-2 21 2c17 11 160 62 176 63 7 1 15-6 18-14zm-4266-35c0-5-4-10-10-10-5 0-10 5-10 10 0 6 5 10 10 10 6 0 10-4 10-10zm724-7c8-20 0-28-36-37-22-5-26-3-23 9 3 8 7 22 10 30 6 20 41 19 49-2zm-119-33c4-6 2-17-4-24s-9-15-6-18c10-9-61-81-73-74-28 17 8 86 44 86 10 0 14 6 11 14-9 23 15 37 28 16zm105-20c0-5-4-10-10-10-5 0-10 5-10 10 0 6 5 10 10 10 6 0 10-4 10-10zm-310-54c0-3-4-8-10-11-5-3-10-1-10 4 0 6 5 11 10 11 6 0 10-2 10-4zm2270-1c0-38-189-311-213-307-8 1-17-6-20-15-4-16-108-73-249-138-21-10-38-24-38-32 0-11-7-14-21-10-11 3-36-4-56-15-29-18-39-19-55-9-23 14-41 5-33-18 4-13-12-25-70-54-42-20-82-37-90-37s-15-4-15-10c0-15-28-12-58 7-38 24-43 35-26 54 7 8 14 27 14 41 0 15 3 33 6 42 7 19 50 21 57 4 2-7 8-10 12-6s0 14-9 23-16 23-16 31c0 16 39 34 74 34 24 0 64 35 53 46-3 4-2 15 4 25 10 19 53 26 63 10 7-10 84 15 106 34 35 32 127 73 141 64 8-5 23-9 35-9 24 0 69 44 60 59-8 13 34 40 194 124 116 61 150 75 150 62zm30-78c0-74-21-158-46-188-23-26-17-39 16-32 29 5 30 5 30-34 0-50-95-206-128-211-18-3-21-9-19-40 2-29-3-38-21-48-16-8-20-14-12-19 6-4 15-18 21-32 11-29 44-28 44 2 0 11 5 19 10 18 6-1 24-4 40-8 27-6 28-5 13 8-23 18-23 23 1 30 28 7 49-9 34-24-10-10-9-16 3-31 16-16 15-18-10-28-15-5-32-10-38-10-5 0-22-6-36-14-15-7-46-18-70-24-52-12-54-8-50 74 3 54 1 61-25 83-22 18-30 21-42 11-11-9-12-16-3-30 10-15 4-27-32-71-75-92-142-150-165-143-86 27-176 84-132 84 6 0 17 11 24 25 10 22 8 27-8 35-41 22-22 44 84 98 57 29 108 52 112 52 5 0 16 6 24 14 35 31 213 118 222 109 6-6-7-39-37-92-25-45-44-85-41-88 6-5 47 56 47 70 0 5 10 6 23 3 12-3 16-3 10 0-18 8-16 28 7 67 19 33 20 36 4 52-9 9-23 14-30 11-8-3-21-9-29-12-11-5-15 1-16 22-2 56-7 46 94 187 20 29 54 85 74 125 21 39 41 72 45 72 5 0 8-33 8-73zm-2082 20c4-20-25-34-40-19s-1 44 19 40c10-2 19-11 21-21zm-461-29c4-7 8-17 8-23 0-5 14-11 30-13 17-2 37-6 45-9 8-4 21-7 29-7 8-1 18-11 22-24 7-19 6-21-9-14-9 5-23 7-30 5-7-3-19 0-27 7-8 6-19 9-25 5-15-10-80 14-80 30 0 7-5 15-11 17-5 2-7 11-4 21 8 20 40 23 52 5zm3318-26c-3-18-14-32-26-35-13-3-19-14-19-32 0-39-84-145-116-145-17 0-24-5-24-20 0-23-31-41-38-22-4 13-34 16-45 5-4-3 0-14 9-24 15-17 14-19-22-34-21-8-48-18-61-21-28-7-30-24-4-31 11-3 22-11 25-18 3-8 19-21 37-31 18-9 41-25 52-35 12-10 26-19 31-20 43-4 101 5 133 21 21 10 54 21 73 25 19 3 49 11 65 15 17 5 58 14 92 21 35 6 64 18 67 26 4 10 10 11 25 4 19-11 87-1 231 33 36 9 68 16 73 16 19 0 1-27-63-93-38-40-70-78-70-84 0-7-6-13-13-13-20 0-115-89-95-90 9 0 19 4 22 9s15 7 26 4c10-3 26 2 35 11s21 16 26 16c13 0 11-18-2-22-14-5-22-78-9-78 15 0 12-30-2-30-7 0-24-16-38-35s-30-35-37-35c-21 0-9 42 14 53 25 11 29 22 13 32-6 4-8 15-5 26 8 23-13 26-22 3-3-8-12-13-20-10-21 9-53-12-53-34 0-14 5-18 17-13 13 5 15 3 8-13-14-31-9-76 9-86 9-5 24-18 34-29 16-17 20-17 38-4 29 22 43 18 61-19 19-41 13-62-22-78-24-11-28-9-49 17-16 20-28 26-41 21-17-6-17-8 3-22 12-8 22-24 22-35 0-10 6-19 14-19 7 0 21-12 31-26 16-24 17-25 30-7 13 17 14 17 21-2 4-11 14-25 21-30 16-12 18-39 7-74-5-18-4-22 7-19 19 7 49-20 42-38-6-17 8-19 24-3 15 15 33 3 33-22 0-22 0-23-37-7-30 13-83 18-83 8 0-4 7-15 15-26 21-28 18-34-13-34-25 0-32 7-48 46-17 41-26 50-79 74-33 15-78 34-100 41s-45 17-51 21c-14 10-10 106 4 120 8 8 7 15-3 24-19 19-77-9-68-33 5-12 2-15-10-10-8 3-17 1-19-5s-11-4-21 6c-15 16-18 16-23 2-3-9-4-23 0-31 3-9 0-15-9-15-10 0-12-9-8-35 4-23 2-35-6-35-6 0-11 8-11 17 0 25-42 82-65 88-11 3-51 20-88 38-67 31-68 32-46 48 18 14 21 22 15 53l-7 38-77-8c-108-11-130-10-155 13-12 11-39 23-60 26-32 5-40 2-53-18-15-22-20-24-82-19-37 3-74 8-82 11s-57 6-108 7c-80 1-96 4-108 20-12 17-17 18-38 7-31-17-45-8-38 25 3 16 14 29 31 36 14 5 39 16 54 24 16 8 46 14 66 14 25 0 44 7 56 20 10 11 35 25 56 30 21 6 43 20 49 30 8 15 17 19 35 14 14-3 32-3 41 0 12 5 10 10-13 30l-28 25 68-5c62-4 70-3 87 18 23 27 25 48 7 48-8 0-22 9-31 19-15 16-23 18-44 10-18-7-28-7-30 0-5 16-22 13-22-3 0-7-27-23-60-36-56-21-70-38-32-41 9-1-3-5-28-9s-51-4-59 0c-7 4-35-2-62-13-27-12-51-18-54-15-12 12 15 58 34 58 25 0 36 17 23 33-8 9 0 30 28 73 21 33 44 65 51 71 23 18 201 93 222 93 11 0 28 6 36 14 30 26 467 207 484 200 11-4 17-1 17 7 0 7 3 10 6 6 3-3 3-19-1-35zm-3195 18c0-5-4-10-10-10-5 0-10 5-10 10 0 6 5 10 10 10 6 0 10-4 10-10zm140-20c20 0 41-11 64-35 20-19 40-35 46-35 5 0 10-7 10-15s9-15 20-15c31 0 120-52 141-82 17-23 24-26 57-21 20 3 47 11 59 19 15 10 30 11 54 4 19-6 46-10 60-10 31 0 44-23 23-41-12-10-19-8-39 11-20 18-28 21-37 12s-7-19 10-41c15-21 18-32 10-37-7-5-5-11 7-21 13-9 16-16 8-24-7-7-22 1-49 26-21 20-39 42-39 48 0 7-4 12-10 13-5 0-9-7-7-18 4-23 0-23-46 2-25 14-38 16-41 9-4-13 37-48 56-49 6 0 42-16 79-35s70-35 74-35c3 0 5 13 2 29-2 16 1 32 8 36 12 8 62-9 100-35 22-15 55-20 128-20 13 0 43-5 67-10 61-14 71-8 67 40-5 45 0 48 30 21 14-14 19-28 16-45-3-14-1-26 3-26 5 0 9 6 9 13 0 6 5 4 11-6 9-15 22-18 62-16 50 1 83-8 120-33 14-11 19-10 26 0 4 8 17 12 28 10 11-1 27 3 36 10 28 24 52 11 52-28 0-34-1-35-35-33-19 2-44 3-55 3-11 1-23 6-27 13-5 8-8 5-8-9 0-11 5-25 11-31 11-11-18-66-58-109l-22-24h24c13 0 27-4 30-10s16-10 28-10c27-1 78-41 60-47-17-6-17-53 0-53 22 0 58 31 56 48-3 33 1 42 19 42 10 0 23 5 30 12 8 8 17 7 34-4 21-14 27-14 61 0l39 15 58-59c44-44 60-69 66-98 6-35 5-38-14-32-15 5-24 1-32-14-6-11-27-27-48-35-43-19-50-13-78 66-19 51-30 60-41 33-4-10 1-20 11-26 12-7 14-13 6-29-8-14-7-19 1-19 12 0 38-29 39-42 0-10-67-38-90-38-9 0-25-9-35-20s-27-22-39-26c-11-4-78-38-148-75-73-40-134-66-143-63-9 4-15 1-15-9 0-18-365-230-384-224-15 6 76 94 198 192 55 44 138 113 185 152 47 40 91 73 96 74 16 2 109 108 101 116-3 4-12 1-18-5-9-9-27-3-77 24-53 29-120 70-150 91-3 2-6 24-6 48-2 42 0 45 24 45 14-1 46-5 71-10 25-4 47-6 50-4 9 10-23 22-74 28-28 3-80 17-116 29-50 18-65 28-65 42 0 26-14 47-26 39-6-4-6-11 2-20 6-8 8-18 4-22s-10-1-12 5c-3 7-24 21-48 32-23 10-53 33-66 50-26 36-40 40-32 10 5-17 2-19-19-14-16 4-29 1-37-9-24-29-103-13-160 31-3 2 3 9 13 16 22 16 17 51-8 55-14 3-17 0-13-12 9-22-2-46-20-46-10 0-14 7-10 20 7 27-26 27-51 0-20-22-76-32-77-15 0 6-17 33-38 62-44 60-71 79-207 148-84 43-110 62-110 82 0 16 5 16 30 3 15-8 21-6 31 12 9 17 9 24-5 34s-15 16-5 38c8 17 18 25 27 21 7-3 27-5 42-5zm1800-40c0-5-4-10-10-10-5 0-10 5-10 10 0 6 5 10 10 10 6 0 10-4 10-10zm-2176-21c-3-5-10-7-15-3-5 3-7 10-3 15 3 5 10 7 15 3 5-3 7-10 3-15zm5034-10c-2-6-8-10-13-10s-11 4-13 10 4 11 13 11 15-5 13-11zm-4803-10c10-15-1-23-20-15-9 3-13 10-10 16 8 13 22 13 30-1zm2805-19c0-5-2-10-4-10-3 0-8 5-11 10-3 6-1 10 4 10 6 0 11-4 11-10zm1290-54c0-3-4-8-10-11-5-3-10-1-10 4 0 6 5 11 10 11 6 0 10-2 10-4zm-24-101c8-20-13-45-31-38-9 3-17-5-21-21-3-14-10-26-15-26-13 0-11 15 8 60 18 41 48 54 59 25zm-1001-15c3-5 1-10-4-10-6 0-11 5-11 10 0 6 2 10 4 10 3 0 8-4 11-10zm1125-40 20-28-41-26c-50-34-71-24-33 15 24 25 27 32 16 49-33 53 0 44 38-10zm-240 30c12-8 11-15-8-49-22-39-22-61-1-61 12 0 49-37 49-49 0-5-6-9-12-8-34 1-48-4-48-18 0-9-12-21-27-28-16-6-32-17-36-24-13-21-37-15-37 8 0 19-2 20-16 8s-16-11-13 6c4 16 14 21 54 23 45 3 76 15 64 25-2 3-30 7-61 10-46 4-58 3-58-9 0-8-7-14-15-14s-15 4-15 9c0 11 50 44 67 44 7 0 13 12 13 26 1 36 22 61 52 61 22 0 25 4 20 25-5 26 3 31 28 15zm-2752-44c3-22 0-27-14-24-27 5-42 36-24 48 22 14 35 7 38-24zm2912 14c0-5-2-10-4-10-3 0-8 5-11 10-3 6-1 10 4 10 6 0 11-4 11-10zm-1145-9c3-5 1-12-5-16-5-3-10 1-10 9 0 18 6 21 15 7zm1080-100c7-12-12-24-25-16-11 7-4 25 10 25 5 0 11-4 15-9zm-3515-51c0-5-7-10-15-10s-15 5-15 10c0 6 7 10 15 10s15-4 15-10zm257-12c8 22 34 14 31-10-2-19 1-23 21-20 22 2 88-28 123-56 13-11 15-19 7-33-12-24-4-39 22-39 10 0 19-4 19-8 0-18-12-20-38-6-15 8-32 14-38 14s-18 7-25 16c-11 13-10 17 4 25 9 6 17 17 17 25 0 12-7 14-29 9-21-4-30-2-34 9-4 9-11 16-17 16s-6-7 2-20c7-10 9-22 6-25-9-9-88 45-88 61 0 8-15 14-37 16-21 2-38 7-38 13 0 15 58 23 74 11 10-8 15-8 18 2zm1760-14c-3-3-12-4-19-1-8 3-5 6 6 6 11 1 17-2 13-5zm-813-35c5-4 6-14 3-23-7-18-70-17-89 2-30 30 54 51 86 21zm-289-45c-18-13-20-13-23 2-5 21 19 37 33 23 7-7 4-15-10-25zm2346 20c10-13 10-17-2-25-22-14-44-6-47 19-4 27 28 31 49 6zm279 6c0-5-4-10-10-10-5 0-10 5-10 10 0 6 5 10 10 10 6 0 10-4 10-10zm-1899-58c12-31 10-33-27-23-31 8-45 38-23 51 18 12 39 0 50-28zm-506-22c-5-8-11-8-17-2s-7 16-3 22c5 8 11 8 17 2s7-16 3-22zm114-53c41-19 43-21 22-29-12-4-19-12-16-18 16-26-30-6-61 26-56 60-41 66 55 21zm1851-33c0-8-4-12-10-9-5 3-10 10-10 16 0 5 5 9 10 9 6 0 10-7 10-16zm-1745-27c19-14 18-16-19-31-29-12-42-13-52-5-18 15-18 25 3 48 17 20 26 19 68-12zm381-42c4-8 11-12 17-8 12 7 75 5 89-3 16-10-11-42-32-37-25 7-27-12-3-26 10-5 15-13 10-17-4-4 3-12 15-18 39-20 45-42 18-71-21-22-22-28-10-35 8-5 21-10 28-10 22 0 8-24-22-38-15-8-30-21-34-30-3-9-19-27-34-40s-28-32-28-42c0-13-5-17-20-13-27 7-25-3 10-47 25-32 28-41 17-52-16-16-13-66 5-82 8-6 20-19 27-29 13-16 12-17-15-7-58 22-145 74-155 92-5 10-20 18-33 18s-29 7-36 15-18 15-25 15c-20 0-103 49-109 65-4 11-18 13-64 9-38-4-62-2-66 5-4 6-16 11-27 11-10 0-19 2-19 5 0 11 26 50 40 61 8 7 11 16 7 21-5 4-14 0-21-10-14-19-36-23-36-7 0 6-8 10-17 10-10 0-31 12-47 26-26 23-28 27-13 36 10 5 15 14 11 19-4 7-12 5-22-5-31-27-112 8-84 36 7 7 12 26 12 44 0 28 4 33 30 39 16 4 32 11 35 16 9 14 37 11 75-9 68-35 80-45 68-59-8-10-7-13 3-13 8 0 27-7 43-15 16-9 37-13 46-10s33-6 53-20c21-13 37-22 37-19 0 2 9 0 20-6 27-14 25-36-3-44-26-6-71-62-62-76 3-6 14-10 23-10 9-1 33-14 52-30 36-32 54-38 47-17-2 7 13 16 42 23 26 7 36 12 23 13-14 1-27 11-34 27-10 22-10 28 6 40 16 11 22 11 40-1 35-25 53-19 53 18-1 18 2 40 6 50 9 25 37 21 38-5 1-16 4-11 11 14 6 22 18 40 29 43 24 8 24 20-2 46-15 15-24 18-33 10-18-15-101-7-101 10 0 7-17 17-37 22-31 7-38 13-38 33 0 29 22 31 56 5 32-25 64-17 66 18 0 14 2 31 3 36 2 6 3 13 4 18 2 14 62 7 67-8zm194-15c0-5-2-10-4-10-3 0-8 5-11 10-3 6-1 10 4 10 6 0 11-4 11-10zm460-20c0-5-4-10-10-10-5 0-10 5-10 10 0 6 5 10 10 10 6 0 10-4 10-10zm-360-60c0-5-7-10-16-10-8 0-12 5-9 10 3 6 10 10 16 10 5 0 9-4 9-10zm463-51c37-13 67-29 67-35 0-15-28-26-35-14-4 6-15 10-26 10-10 0-28 6-39 12-15 10-25 10-38 2-23-15-28-62-8-70 28-11 18-22-51-58-72-38-78-37-90 17-6 28-17 35-28 17-4-7-12-7-25 0-26 14-65 13-78-3-17-20-26-67-13-67 6 0 11-7 11-16 0-14-3-14-15-4-13 11-18 10-30-6-14-19-15-57-2-70 9-9-12-34-28-34-7 0-18-6-24-14-7-8-28-17-47-21-19-3-38-13-41-21-8-21-20-17-26 8-5 18-8 19-22 8-11-9-14-22-10-38 6-23 4-24-27-19-21 3-39-1-50-11-14-12-20-12-33-2-17 14-21 50-5 50 5 0 13-8 19-17 9-17 10-17 16-1 4 9 17 19 31 22 15 4 24 14 24 27 0 11 7 22 15 25 13 5 11 11-10 32-14 13-25 28-25 32 0 12 23 27 63 40 31 10 36 14 26 26-6 8-23 14-38 14-39 0-54 13-31 27 15 10 19 9 24-4 5-12 15-14 42-10 19 3 47 2 61-4 21-8 28-6 40 11 8 11 22 20 31 20 10 0 28 10 42 23 14 12 42 30 63 39 41 20 56 43 38 61-6 6-11 14-11 18 0 10 54-3 62-15 5-8 21-4 50 11 41 22 81 33 103 28 6-1 40-13 78-26zm-1457-118c-4-6-16-11-26-11s-20-5-22-11-17-12-33-13c-17-1-36-5-43-10-8-5-18-4-24 2-8 8-1 20 22 42 31 29 34 30 52 13 18-16 19-15 35 6 14 20 17 21 30 8 9-8 12-20 9-26zm1484 19c0-5-4-10-10-10-5 0-10 5-10 10 0 6 5 10 10 10 6 0 10-4 10-10zm-1382-38c4-27-16-36-52-22l-28 10 24 20c29 25 52 22 56-8zm-333-11c3-5 1-12-5-16-5-3-10 1-10 9 0 18 6 21 15 7zm1978-18c3-10 8-34 11-54 6-34 4-37-20-43-14-4-28-6-29-4s-10 17-19 35c-23 45-21 71 7 76 41 8 46 7 50-10zm-1818-48c0-21-31-33-46-18-5 5-7 17-3 27 9 24 49 17 49-9zm1705 5c0-5-2-10-4-10-3 0-8 5-11 10-3 6-1 10 4 10 6 0 11-4 11-10zm-113-26c-9-9-28 6-21 18 4 6 10 6 17-1 6-6 8-13 4-17zm856-18c21-16 23-46 2-46-8 0-15 5-15 10 0 7-6 7-20 0-22-12-88-6-103 9-18 18 4 29 58 34 28 2 52 4 55 5s13-5 23-12zm-1603-57c0-20-15-26-25-9-9 15 3 43 15 35 5-3 10-15 10-26zm1662-13c8-7 28-20 44-29 17-9 37-23 44-32 12-15 10-16-16-9-42 9-104 53-104 73 0 15 16 14 32-3zm-2007-46c3-5 1-10-4-10-6 0-11 5-11 10 0 6 2 10 4 10 3 0 8-4 11-10zm-481-21c-3-5-10-7-15-3-5 3-7 10-3 15 3 5 10 7 15 3 5-3 7-10 3-15z"/><path d="m5287 6623c-13-13-7-21 13-16 11 3 20 9 20 14 0 10-24 12-33 2z"/><path d="m5205 6581c-7-12 12-24 26-16 5 4 15-7 22-24 13-36 22-39 37-12 15 28 14 31-25 47-40 16-52 17-60 5z"/><path d="m5140 6538c-19-10-54-38-79-63-24-25-54-48-67-51-20-5-40-31-31-41 6-6 181 98 190 113 4 7 15 20 24 29 25 25 2 33-37 13z"/><path d="m5296 6498c-23-24-26-32-15-39 22-14 33-5 40 32 4 18 7 35 6 35-1 1-15-12-31-28z"/><path d="m5170 6422c0-5 7-16 16-23 14-12 16-11 13 5-4 20-29 35-29 18z"/><path d="m4277 6393c-16-15-5-31 23-35l30-5-22 24c-24 26-23 25-31 16z"/><path d="m4370 6388c0-9 5-20 11-23 17-11 20 0 4 21-13 17-14 17-15 2z"/><path d="m4010 6381c0-5 10-11 23-15 33-9 37-8 37 9 0 10-10 15-30 15-16 0-30-4-30-9z"/><path d="m4204 6369c-3-5 0-9 6-9 7 0 10-7 7-15-8-20 11-29 28-15 8 7 15 15 15 19 0 11-50 29-56 20z"/><path d="m3594 6356c22-18 46-21 46-6 0 6-6 10-14 10s-23 3-33 6c-16 5-16 4 1-10z"/><path d="m3905 6359c-10-15 1-23 20-15 9 3 13 10 10 16-8 13-22 13-30-1z"/><path d="m5224 6334c0-32 1-34 13-18 15 21 14 45-2 51-7 2-11-12-11-33z"/><path d="m3088 6342c-27-17-43-40-34-50 3-2 19 6 36 18 25 18 33 20 46 10 21-18 26-7 8 18-18 26-20 26-56 4z"/><path d="m3810 6350c0-5 5-10 10-10 6 0 10 5 10 10 0 6-4 10-10 10-5 0-10-4-10-10z"/><path d="m3960 6350c0-5 5-10 10-10 6 0 10 5 10 10 0 6-4 10-10 10-5 0-10-4-10-10z"/><path d="m4470 6350c0-5 5-10 10-10 6 0 10 5 10 10 0 6-4 10-10 10-5 0-10-4-10-10z"/><path d="m3720 6339c0-5 5-7 10-4 6 3 10 8 10 11 0 2-4 4-10 4-5 0-10-5-10-11z"/><path d="m4750 6335c0-8 9-15 20-15s20-6 21-12c0-7 4-4 8 7 11 26 5 35-25 35-15 0-24-6-24-15z"/><path d="m3572 6318c2-12 10-23 18-25 11-4 12-2 2 5-7 5-10 16-6 25 3 10 1 17-6 17-6 0-10-10-8-22z"/><path d="m4030 6314c0-8 5-12 10-9 6 3 10 10 10 16 0 5-4 9-10 9-5 0-10-7-10-16z"/><path d="m4506 6314c-5-12-2-15 10-10 8 3 18 6 20 6s4 5 4 10c0 16-27 11-34-6z"/><path d="m3768 6306c-25-18-22-39 7-52 27-13 35 0 27 44-5 25-10 27-34 8z"/><path d="m3871 6307c-6-8-8-17-4-20 7-8 33 11 33 24s-16 11-29-4z"/><path d="m4600 6290c0-5 5-10 10-10 6 0 10 5 10 10 0 6-4 10-10 10-5 0-10-4-10-10z"/><path d="m3970 6280c0-5 5-10 10-10 6 0 10 5 10 10 0 6-4 10-10 10-5 0-10-4-10-10z"/><path d="m4542 6273c2-10 13-19 26-21 26-4 28 6 5 24-25 18-35 17-31-3z"/><path d="m4700 6280c0-5 5-10 10-10 6 0 10 5 10 10 0 6-4 10-10 10-5 0-10-4-10-10z"/><path d="m5320 6274c0-8 5-12 10-9 6 3 10 10 10 16 0 5-4 9-10 9-5 0-10-7-10-16z"/><path d="m5036 6245c-15-15-16-51-2-73 4-7 2-19-4-27-10-11-10-18-1-29 22-26 75-26 70 0-6 32 25 42 60 19 9-5 19-2 27 10 19 26-4 60-39 60-15 0-33 10-47 28-24 31-42 34-64 12z"/><path d="m5196 6252c-3-6-1-14 5-17 15-10 25 3 12 16-7 7-13 7-17 1z"/><path d="m3775 6210c3-5 11-10 16-10 6 0 7 5 4 10-3 6-11 10-16 10-6 0-7-4-4-10z"/><path d="m5217 6183c-12-11-8-23 8-23 8 0 15 7 15 15 0 16-12 20-23 8z"/><path d="m3490 6135c0-8 5-15 10-15 6 0 10 7 10 15s-4 15-10 15c-5 0-10-7-10-15z"/><path d="m3400 6120c0-5 4-10 9-10 6 0 13 5 16 10 3 6-1 10-9 10-9 0-16-4-16-10z"/><path d="m5120 6103c1-18 18-35 24-24 4 6 4 16 1 21-7 12-25 13-25 3z"/><path d="m4875 6090c-3-5 1-10 10-10s13 5 10 10c-3 6-8 10-10 10s-7-4-10-10z"/><path d="m4794 6065c-4-10-1-21 7-26 23-14 31-10 27 13-4 27-26 35-34 13z"/><path d="m3470 6040c0-5 7-10 16-10 8 0 12 5 9 10-3 6-10 10-16 10-5 0-9-4-9-10z"/><path d="m5000 6024c0-11 6-14 23-9 38 12 43 25 9 25-22 0-32-5-32-16z"/><path d="m4770 6015c0-8 7-15 15-15s15 7 15 15-7 15-15 15-15-7-15-15z"/><path d="m4710 5882c0-12 19-26 26-19 2 2-2 10-11 17-9 8-15 8-15 2z"/><path d="m4570 5760c0-5 5-10 11-10 5 0 7 5 4 10-3 6-8 10-11 10-2 0-4-4-4-10z"/><path d="m4730 5635c0-8 5-15 10-15 6 0 10 7 10 15s-4 15-10 15c-5 0-10-7-10-15z"/><path d="m4550 5538c0-15 5-30 11-33 19-12 21 2 5 32l-15 28z"/><path d="m4485 5500c-3-6 1-13 10-16 19-8 30 0 20 15-8 14-22 14-30 1z"/><path d="m1890 6370c0-5 7-10 16-10 8 0 12 5 9 10-3 6-10 10-16 10-5 0-9-4-9-10z"/><path d="m2134 6154c-4-10-9-22-11-26-2-5 0-8 5-8 10 0 24 41 17 48-3 3-8-4-11-14z"/><path d="m1855 6030c-3-5 3-10 14-10 12 0 21 5 21 10 0 6-6 10-14 10s-18-4-21-10z"/><path d="m2214 5995c-7-17 4-37 17-30 12 8 12 45-1 45-6 0-13-7-16-15z"/><path d="m2066 5902c-2-4-1-14 3-21 6-9 10-7 14 8 5 20-7 29-17 13z"/><path d="m2545 5530c-3-5 1-10 10-10s13 5 10 10c-3 6-8 10-10 10s-7-4-10-10z"/><path d="m4183 5425c-27-12-30-25-5-25 24 0 42 14 34 26-5 6-15 6-29-1z"/><path d="m4131 5354-22-16 22-24c21-22 21-25 6-42-25-27-21-58 10-82 34-27 74-23 90 10 10 21 9 29-8 57-11 18-17 37-14 43 12 19-15 40-42 34-22-6-24-4-18 15 8 25 6 26-24 5z"/><path d="m3520 5295c-12-14-11-18 1-26 20-12 34-6 34 16 0 24-19 30-35 10z"/><path d="m3446 5241c-4-7-5-15-2-18 9-9 19 4 14 18-4 11-6 11-12 0z"/><path d="m4020 5215c0-8 7-15 15-15s15 7 15 15-7 15-15 15-15-7-15-15z"/><path d="m3943 5195c-3-9-3-18 0-21 9-9 27 6 27 22 0 19-19 18-27-1z"/><path d="m3815 5136c-19-14-19-15 5-34l24-20 13 25c7 14 13 29 13 34 0 14-34 11-55-5z"/><path d="m3990 5116c0-31 14-40 30-21 9 11 9 18-3 30-21 21-27 19-27-9z"/><path d="m3460 5060c0-5 5-10 11-10 5 0 7 5 4 10-3 6-8 10-11 10-2 0-4-4-4-10z"/><path d="m3290 5026c0-14-4-27-9-30-12-8 10-56 25-56 14 0 38 74 31 94-4 9-16 16-27 16-15 0-20-7-20-24z"/><path d="m3970 5040c0-5 9-10 20-10s20 5 20 10c0 6-9 10-20 10s-20-4-20-10z"/><path d="m2380 5029c0-5 5-7 10-4 6 3 10 8 10 11 0 2-4 4-10 4-5 0-10-5-10-11z"/><path d="m3690 4944c0-8 5-12 10-9 6 3 10 10 10 16 0 5-4 9-10 9-5 0-10-7-10-16z"/><path d="m3380 4942c0-5 7-16 16-23 14-12 16-11 13 5-4 20-29 35-29 18z"/><path d="m2992 4924c4-21 22-23 26-1 2 10-3 17-13 17s-15-6-13-16z"/><path d="m4464 4868c3-13 6-29 6-37 0-11 4-9 15 5 22 29 19 54-6 54-17 0-20-4-15-22z"/><path d="m3900 4845c-16-20-6-45 19-45 26 0 34 15 21 40-13 24-23 25-40 5z"/><path d="m4307 4846c-7-17 22-31 36-17 5 5 6 14 3 20-10 16-33 14-39-3z"/><path d="m3762 4791c2-7 7-12 11-12 12 1 9 15-3 20-7 2-11-2-8-8z"/><path d="m2780 4762c0-12 19-26 26-19 2 2-2 10-11 17-9 8-15 8-15 2z"/><path d="m4270 4725c0-9 5-15 11-13s11 8 11 13-5 11-11 13-11-4-11-13z"/><path d="m2735 4697c-21-16-16-55 11-81 20-20 64-21 64-1 0 9 6 12 15 9 20-8 20 34-1 64-17 25-60 29-89 9z"/><path d="m3760 4690c0-5 5-10 10-10 6 0 10 5 10 10 0 6-4 10-10 10-5 0-10-4-10-10z"/><path d="m4130 4651c-14-27-13-31 11-31 15 0 19-4 15-16-4-10-1-14 6-11 24 7 12 77-13 77-5 0-13-9-19-19z"/><path d="m3713 4653c-20-7-15-23 7-23 11 0 20 4 20 9 0 13-12 19-27 14z"/><path d="m3455 4610c-3-5 3-10 14-10 13 0 21-8 24-22 3-20 4-21 11-5 14 30-32 65-49 37z"/><path d="m4087 4542c-21-23-21-32-2-32 12 0 35 28 35 44 0 12-17 5-33-12z"/><path d="m3268 4526-26-23 50-6c64-8 72-3 44 28-28 30-34 31-68 1z"/><path d="m4130 4506c0-9 5-16 10-16 6 0 10 4 10 9 0 6-4 13-10 16-5 3-10-1-10-9z"/><path d="m3402 4430c-30-28-28-35 16-53 40-16 56-10 65 23 5 18-4 25-25 21-5 0-7 4-5 11 4 21-28 19-51-2z"/><path d="m3224 4398c-4-6 4-19 19-30 29-21 91-107 83-115-11-11-36 8-36 27s-4 20-50 14c-41-5-51-4-56 10-3 9-10 16-15 16-4 0-6-7-3-15 4-10 0-15-11-15-9 0-13-5-10-11 4-6 13-8 21-5 7 3 16 1 19-4 4-6 12-10 19-10 8 0 34-9 60-21l46-20-25-33c-14-18-25-35-25-38 0-6 56-28 71-28 4 0 9 30 11 68 2 45 7 66 15 65 17-4 58 50 42 56-6 2-20-7-30-20-16-21-20-22-29-9-6 8-13 26-16 40-7 31-90 95-100 78z"/><path d="m4086 4381c-4-5-2-12 3-15 5-4 12-2 15 3 4 5 2 12-3 15-5 4-12 2-15-3z"/><path d="m3060 4336c0-9 7-16 16-16s14 5 12 12c-6 18-28 21-28 4z"/><path d="m3430 4335c-7-9-11-17-9-20 3-2 10 5 17 15 14 24 10 26-8 5z"/><path d="m3835 4330c3-5 8-10 11-10 2 0 4 5 4 10 0 6-5 10-11 10-5 0-7-4-4-10z"/><path d="m3020 4275c0-16 6-25 16-25 11 0 14 5 10 16-3 9-6 20-6 25s-4 9-10 9c-5 0-10-11-10-25z"/><path d="m3097 4273c-11-10-8-23 6-23 6 0 25-18 40-40 16-22 33-40 38-40 6 0 1 12-10 26-17 22-19 30-9 42 11 13 10 15-4 9-12-4-21 0-28 13-11 21-22 25-33 13z"/><path d="m3205 4103c-10-31-65-85-81-79-13 5-18-5-15-31 1-6-21-41-49-78-35-46-49-73-45-85 9-27 38-13 31 14-4 16 11 44 55 104 34 45 66 83 73 83 6 1 34 2 61 4 52 3 105 19 105 32 0 10-64 39-102 47-20 5-28 2-33-11zm25-37c0-3-4-8-10-11-5-3-10-1-10 4 0 6 5 11 10 11 6 0 10-2 10-4z"/><path d="m3070 4092c0-15 28-47 35-40 11 11-5 48-21 48-8 0-14-4-14-8z"/><path d="m3436 4052c-7-12 22-38 31-28 4 3 0 14-9 22-9 10-18 12-22 6z"/><path d="m3323 3992c-38-45-39-49-17-44 17 3 24 0 24-11 0-8-3-17-7-20-5-2-2-2 5 0 7 1 24-10 37-25 19-21 24-23 25-10 0 9-4 19-9 23-18 10-40 66-33 83 3 9 15 25 27 34 15 13 16 17 5 18-8 0-34-22-57-48z"/><path d="m2947 3928c-4-12-2-27 3-32 12-12 17-7 22 23 4 31-18 39-25 9z"/><path d="m3550 3920c0-24 15-27 24-4 9 22 8 24-9 24-8 0-15-9-15-20z"/><path d="m3255 3920c-3-5-1-10 4-10 6 0 11 5 11 10 0 6-2 10-4 10-3 0-8-4-11-10z"/><path d="m3430 3810c6-11 15-20 20-20 14 0 1 28-16 34-12 4-12 2-4-14z"/><path d="m3288 3792c-22-4-24-28-4-35 9-4 17 2 21 14 8 24 6 27-17 21z"/><path d="m3141 3674c0-11 3-14 6-6 3 7 2 16-1 19-3 4-6-2-5-13z"/><path d="m3075 3610c-3-6 1-7 9-4 18 7 21 14 7 14-6 0-13-4-16-10z"/><path d="m3196 3533c-11-11-6-23 9-23 8 0 15 4 15 9 0 13-16 22-24 14z"/><path d="m3128 3449c5-11 11-20 15-20 4 1 14 1 22 1 20 0 19 26-1 34-31 12-44 7-36-15z"/><path d="m2930 3390c0-5 5-10 11-10 5 0 7 5 4 10-3 6-8 10-11 10-2 0-4-4-4-10z"/><path d="m3000 3365c0-8 7-15 15-15s15 7 15 15-7 15-15 15-15-7-15-15z"/><path d="m2885 3310c-3-5-1-10 4-10 6 0 11 5 11 10 0 6-2 10-4 10-3 0-8-4-11-10z"/><path d="m2930 3238c0-18 18-34 28-24 3 4-2 14-11 23-16 16-17 16-17 1z"/><path d="m5837 6373c-10-9-9-53 1-53 4 0 19 5 33 12 24 11 25 12 7 30-19 19-30 22-41 11z"/><path d="m5850 6240c0-5 5-10 10-10 6 0 10 5 10 10 0 6-4 10-10 10-5 0-10-4-10-10z"/><path d="m5947 6214c-10-10-9-42 2-48 5-3 14 0 20 7 12 15-9 54-22 41z"/><path d="m5880 6200c0-5 5-10 10-10 6 0 10 5 10 10 0 6-4 10-10 10-5 0-10-4-10-10z"/><path d="m5785 5790c-3-5-1-10 4-10 6 0 11 5 11 10 0 6-2 10-4 10-3 0-8-4-11-10z"/><path d="m5802 5515c-16-34-16-35 12-35 26 0 39 20 30 45-9 23-29 18-42-10z"/><path d="m5835 5419c-12-19 5-23 22-6 16 16 16 17 1 17-9 0-20-5-23-11z"/><path d="m5880 5385c12-15 30-12 30 6 0 5-10 9-21 9-18 0-19-2-9-15z"/><path d="m5813 5293c-7-2-13-11-13-19 0-12 4-12 20-2 31 20 26 35-7 21z"/><path d="m5486 5054c-21-20-20-53 1-76 15-17 15-19-2-31-17-13-17-15-1-39 26-40 54-42 87-5 30 32 25 63-6 37-12-10-15-10-15 1 0 8 9 20 20 27 28 17 25 56-6 81-32 25-57 27-78 5z"/><path d="m5337 5015c-21-20-10-55 17-55 28 0 52 36 35 56-15 18-34 18-52-1z"/><path d="m5466 4845c-11-8-17-17-14-20 10-10 59 7 55 18-5 17-20 18-41 2z"/><path d="m5220 4822c0-29 19-38 34-16 7 9 18 14 24 10 7-4 12-2 12 3 0 6-9 11-19 11-11 0-26 3-35 6-11 4-16 0-16-14z"/><path d="m5380 4820c0-5 9-10 20-10s20 5 20 10c0 6-9 10-20 10s-20-4-20-10z"/><path d="m5004 4735c-4-15-1-32 6-40 15-18 20-18 43-1 14 11 16 19 7 40-13 35-47 35-56 1z"/><path d="m5160 4682c0-10 21-32 31-32 4 0 5 9 2 20-5 19-33 29-33 12z"/><path d="m5156 4555c-3-9-6-22-5-28 0-7 5-1 10 12s8 26 5 28c-2 2-6-3-10-12z"/><path d="m4990 4352c0-5-12-14-27-21-52-23-193-123-193-136s98-105 112-105c11 0 141 91 156 109 6 8 12 25 12 38 0 29 26 40 53 24 16-10 24-10 44 0 35 19 25 45-16 41-18-1-39 2-46 8-8 6-22 10-32 8-12-2-18 3-18 16 0 12-8 20-22 22-13 2-23 0-23-4z"/><path d="m5740 4350c0-5 7-10 15-10s15 5 15 10c0 6-7 10-15 10s-15-4-15-10z"/><path d="m5755 4300c3-5 10-10 16-10 5 0 9 5 9 10 0 6-7 10-16 10-8 0-12-4-9-10z"/><path d="m5510 4281c0-19 26-48 36-39 7 7-17 58-28 58-4 0-8-8-8-19z"/><path d="m5360 4242c0-11 9-22 21-25 16-4 20-1 17 16-4 28-38 36-38 9z"/><path d="m5761 4224c-34-24-12-40 28-20 17 9 31 21 31 26 0 15-33 12-59-6z"/><path d="m5515 4121c-20-33-44-66-52-72-8-7-19-21-24-31-9-17-8-18 8-8 10 6 31 18 46 28 20 12 34 34 48 76 11 32 18 60 16 62-2 3-21-23-42-55z"/><path d="m5109 4088c0-2-2-36-4-76-3-70-2-74 23-83 54-21 92 38 56 89-8 12-13 26-10 31 12 19-7 41-35 41-16 0-29-1-30-2zm66-88c8-13-4-50-16-50-13 0-22 27-15 45 6 17 22 20 31 5z"/><path d="m5777 4077c-3-7 4-19 14-25 31-20 24-43-10-36-16 3-37 1-48-4-16-10-16-12 10-21 39-15 51-14 76 7 21 17 21 18 4 54-18 38-37 48-46 25z"/><path d="m5693 3993c-21-7-15-33 7-33 11 0 20 6 20 14 0 18-11 25-27 19z"/><path d="m5830 3979c0-5 5-7 10-4 6 3 10 8 10 11 0 2-4 4-10 4-5 0-10-5-10-11z"/><path d="m5370 3947c0-7-11-25-25-40s-22-27-16-27c5 0 24 18 41 40 24 30 28 40 16 40-9 0-16-6-16-13z"/><path d="m4892 3928c-7-7-12-18-12-25 0-11 4-11 20-1 11 7 20 18 20 25 0 16-12 17-28 1z"/><path d="m5720 3904c0-8 5-12 10-9 6 4 8 11 5 16-9 14-15 11-15-7z"/><path d="m5440 3901c0-9 24-21 43-21 6 0 2 7-9 15-22 17-34 19-34 6z"/><path d="m5670 3870c0-5 5-10 11-10 5 0 7 5 4 10-3 6-8 10-11 10-2 0-4-4-4-10z"/><path d="m5210 3815c0-8 4-15 9-15s14 7 21 15c10 13 9 15-9 15-12 0-21-6-21-15z"/><path d="m4485 3794c-19-19-19-38 0-54s58-3 51 17c-3 8-6 21-6 28 0 20-28 26-45 9z"/><path d="m4980 3790c0-5 5-10 10-10 6 0 10 5 10 10 0 6-4 10-10 10-5 0-10-4-10-10z"/><path d="m4826 3761c-4-7-5-15-2-18 9-9 19 4 14 18-4 11-6 11-12 0z"/><path d="m4326 3595c-9-24-7-45 3-45 5 0 13 9 16 21 8 26-9 48-19 24z"/><path d="m4450 3494c0-9 5-14 12-12 18 6 21 28 4 28-9 0-16-7-16-16z"/><path d="m4065 3490c-11-17 5-32 21-19 7 6 11 15 8 20-7 12-21 11-29-1z"/><path d="m4340 3395c0-8 4-15 10-15 5 0 7 7 4 15-4 8-8 15-10 15s-4-7-4-15z"/><path d="m4057 3242c-10-10-17-24-17-30 0-22 19-12 35 18 17 33 7 40-18 12z"/><path d="m4080 3110c0-5 5-10 10-10 6 0 10 5 10 10 0 6-4 10-10 10-5 0-10-4-10-10z"/><path d="m3907 3054c-8-8 1-24 14-24 5 0 9 7 9 15 0 15-12 20-23 9z"/><path d="m1414 6363c1-26 7-39 18-41 21-4 34 16 19 31-6 6-11 19-11 29s-6 18-14 18c-11 0-14-10-12-37z"/><path d="m1100 6374c0-15 32-28 39-16 3 5 14 13 24 18 13 8 8 10-23 9-23 0-40-5-40-11z"/><path d="m1480 6355c12-15 30-12 30 6 0 5-10 9-21 9-18 0-19-2-9-15z"/><path d="m1090 6336c0-9 5-16 10-16 6 0 10 4 10 9 0 6-4 13-10 16-5 3-10-1-10-9z"/><path d="m1246 6325c4-8 8-15 10-15s4 7 4 15-4 15-10 15c-5 0-7-7-4-15z"/><path d="m1135 6279c-4-6-5-13-2-16 7-7 27 6 27 18s-17 12-25-2z"/><path d="m1237 6275c-6-13 29-53 38-44 2 3 2 14-1 26-7 26-30 37-37 18z"/><path d="m1078 6273c7-3 16-2 19 1 4 3-2 6-13 5-11 0-14-3-6-6z"/><path d="m1390 6260c0-15 5-20 18-18 9 2 17 10 17 18s-8 16-17 18c-13 2-18-3-18-18z"/><path d="m1155 6241c-3-6-17-11-30-11-24 0-41-25-24-36 5-3 16 0 24 6 11 9 19 9 28 2 17-14 40 1 35 23-4 22-23 31-33 16z"/><path d="m1150 6146c0-8 5-18 10-21 6-3 10 3 10 14 0 12-4 21-10 21-5 0-10-6-10-14z"/><path d="m1118 6106c-10-7-15-15-12-18 10-10 44 4 44 18 0 17-10 17-32 0z"/><path d="m1063 6057c1-29 4-33 24-29 22 4 23 6 8 22-8 9-15 22-15 28 0 7-4 12-9 12s-8-15-8-33z"/><path d="m1140 6030c0-5 5-10 10-10 6 0 10 5 10 10 0 6-4 10-10 10-5 0-10-4-10-10z"/><path d="m1078 5946c-4-17-1-23 9-19 14 6 18 43 4 43-5 0-11-11-13-24z"/><path d="m1080 5800c0-5 5-10 10-10 6 0 10 5 10 10 0 6-4 10-10 10-5 0-10-4-10-10z"/><path d="m1050 5649c0-5 5-7 10-4 6 3 10 8 10 11 0 2-4 4-10 4-5 0-10-5-10-11z"/><path d="m1075 5620c3-5 8-10 11-10 2 0 4 5 4 10 0 6-5 10-11 10-5 0-7-4-4-10z"/><path d="m995 5550c3-5 8-10 11-10 2 0 4 5 4 10 0 6-5 10-11 10-5 0-7-4-4-10z"/><path d="m1125 5540c-4-6-3-16 3-22s12-6 17 2c4 6 3 16-3 22s-12 6-17-2z"/><path d="m1000 5465c0-8 7-15 16-15 14 0 14 3 4 15-7 8-14 15-16 15s-4-7-4-15z"/><path d="m1060 5454c0-8 5-12 10-9 6 3 10 10 10 16 0 5-4 9-10 9-5 0-10-7-10-16z"/><path d="m1134 5375c-3-8-3-19 1-25 9-14 35 6 35 26 0 19-29 18-36-1z"/><path d="m1070 5360c0-5 5-10 10-10 6 0 10 5 10 10 0 6-4 10-10 10-5 0-10-4-10-10z"/><path d="m1117 5214c-4-4-7-18-7-32 0-21 3-23 27-17 36 9 39 13 27 33-12 19-36 27-47 16z"/><path d="m1054 5026c-17-8-34-21-37-30-7-19 4-21 21-4 9 9 19 7 43-11 28-21 59-23 59-4 0 7-48 64-53 63-1-1-16-7-33-14z"/><path d="m1025 4830c-3-5-1-10 4-10 6 0 11 5 11 10 0 6-2 10-4 10-3 0-8-4-11-10z"/><path d="m1010 4750c0-4 7-10 15-13 11-5 12-12 3-37-5-17-8-33-6-36 10-10 39 48 33 65-6 19-45 37-45 21z"/><path d="m1016 4641c-4-7-5-15-2-18 9-9 19 4 14 18-4 11-6 11-12 0z"/><path d="m1182 4607c2-28 12-35 24-16 3 6-1 18-10 27-15 15-16 14-14-11z"/><path d="m1105 4530c3-5 13-10 21-10s14 5 14 10c0 6-9 10-21 10-11 0-17-4-14-10z"/><path d="m1110 4465c0-8 5-15 10-15 6 0 10 7 10 15s-4 15-10 15c-5 0-10-7-10-15z"/><path d="m1209 4468c-7-16-6-118 1-118 6 0 10 7 10 15 0 9 7 29 15 45 16 31 11 60-11 60-8 0-14-1-15-2z"/><path d="m1150 4430c6-11 13-20 15-20 3 0 5 9 5 20s-7 20-15 20c-13 0-14-4-5-20z"/><path d="m1010 4305v-34l26 24c28 26 25 45-7 45-15 0-19-7-19-35z"/><path d="m1215 4286c-17-31-17-37-3-95 9-33 12-61 8-61-10 0-21-75-14-95 6-14 23-15 125-13 65 2 121 7 125 10 3 4-12 29-35 56-42 51-121 175-121 191 0 12-20 27-46 35-16 5-24-1-39-28z"/><path d="m1084 4267c-7-18 21-82 30-68 4 6 5 15 1 20-3 5-1 12 5 16 7 4 7 12 0 26-12 22-28 25-36 6z"/><path d="m1615 4260c-3-5-3-15 0-20 7-12 45 5 45 20 0 13-37 13-45 0z"/><path d="m1036 4231c-4-5-2-12 3-15 5-4 12-2 15 3 4 5 2 12-3 15-5 4-12 2-15-3z"/><path d="m1120 4100c0-5 5-10 10-10 6 0 10 5 10 10 0 6-4 10-10 10-5 0-10-4-10-10z"/><path d="m1073 4032c-4-9-11-20-17-24-21-14 11-30 60-32 28-1 49-6 52-14 2-6 8-10 13-7 14 9-14 45-34 45-11 0-21 9-24 19-7 26-42 35-50 13z"/><path d="m1235 3954c-22-13-48-27-57-30-20-7-23-20-7-29 5-4 18 0 28 9 23 21 38 20 51-4 14-27 34-25 54 4 8 14 25 28 37 31l22 7-24 19c-31 24-55 22-104-7z"/><path d="m1602 3915c49-46 69-45 24 0-20 19-41 35-48 35s4-16 24-35z"/><path d="m1440 3905c0-8 5-15 10-15 6 0 10 7 10 15s-4 15-10 15c-5 0-10-7-10-15z"/><path d="m1461 3824c0-11 3-14 6-6 3 7 2 16-1 19-3 4-6-2-5-13z"/><path d="m1387 3763c-4-3-7-13-7-22 1-13 3-13 11 2 11 19 8 33-4 20z"/><path d="m1035 3710c-3-5-1-10 4-10 6 0 11 5 11 10 0 6-2 10-4 10-3 0-8-4-11-10z"/><path d="m1488 3698c9-9 15-9 24 0s7 12-12 12-21-3-12-12z"/><path d="m1113 3655c16-14 33-23 38-20 16 10 10 21-16 33-42 19-52 13-22-13z"/><path d="m1000 3620c0-5 5-10 10-10 6 0 10 5 10 10 0 6-4 10-10 10-5 0-10-4-10-10z"/><path d="m1610 3600c0-5 5-10 10-10 6 0 10 5 10 10 0 6-4 10-10 10-5 0-10-4-10-10z"/><path d="m1000 3561c0-11 4-22 9-25 12-8 34 21 26 34-11 17-35 11-35-9z"/><path d="m1140 3570c0-5 5-10 10-10 6 0 10 5 10 10 0 6-4 10-10 10-5 0-10-4-10-10z"/><path d="m1607 3564c-15-8-25-19-22-24 9-14 20-12 46 8 29 24 12 35-24 16z"/><path d="m1681 3511c-22-14-7-35 28-37 25-1 30 1 20 10-7 6-18 17-24 23-6 8-15 9-24 4z"/><path d="m1395 5730c-3-5 1-10 10-10s13 5 10 10c-3 6-8 10-10 10s-7-4-10-10z"/><path d="m1460 5725c-10-12-10-15 3-15 8 0 20 7 27 15 10 12 10 15-3 15-8 0-20-7-27-15z"/><path d="m1540 5600c0-5 7-10 16-10 8 0 12 5 9 10-3 6-10 10-16 10-5 0-9-4-9-10z"/><path d="m2015 5470c3-5 8-10 11-10 2 0 4 5 4 10 0 6-5 10-11 10-5 0-7-4-4-10z"/><path d="m1960 5449c0-5 5-7 10-4 6 3 10 8 10 11 0 2-4 4-10 4-5 0-10-5-10-11z"/><path d="m1678 5414c6-3 12-12 12-20s5-14 11-14c19 0 4 35-16 37-11 2-14 0-7-3z"/><path d="m5530 5770c0-5 5-10 10-10 6 0 10 5 10 10 0 6-4 10-10 10-5 0-10-4-10-10z"/><path d="m5370 5736c0-9 7-16 16-16s14 5 12 12c-6 18-28 21-28 4z"/><path d="m5480 5710c0-5 9-10 20-10s20 5 20 10c0 6-9 10-20 10s-20-4-20-10z"/><path d="m5240 5650c0-14 39-32 52-24 7 4 2 12-13 20-29 16-39 17-39 4z"/><path d="m5161 5522c-11-20-3-72 11-72 6 0 7 11 4 24-3 14-2 28 4 31 13 8 13 35 0 35-5 0-14-8-19-18z"/><path d="m5046 5324c-15-39 4-42 24-3 8 15 7 19-4 19-7 0-17-7-20-16z"/><path d="m3358 5867c-2-7-1-25 3-42 4-16 7-22 8-13 0 9 10 23 22 31 11 8 17 17 12 19-24 14-42 15-45 5z"/><path d="m3398 5774c-8-7 13-74 24-74 9 0 11 41 2 64-6 16-16 20-26 10z"/><path d="m4835 5350c3-5 11-10 16-10 6 0 7 5 4 10-3 6-11 10-16 10-6 0-7-4-4-10z"/><path d="m1868 4818c23-24 36-21 26 6-3 9-16 16-27 16h-21z"/><path d="m1657 4760c-19-23-23-50-6-50 6 0 24 11 39 24 21 17 26 26 17 35-16 16-30 14-50-9z"/><path d="m2000 4670c0-5 5-10 10-10 6 0 10 5 10 10 0 6-4 10-10 10-5 0-10-4-10-10z"/><path d="m1768 4622c-16-7-28-16-28-20 1-30 80-51 100-27 7 9 23 12 44 8 43-7 57 13 19 28-15 6-38 16-50 21-25 12-43 4-44-20-1-13-2-12-7 3-6 19-9 19-34 7z"/><path d="m1945 4629c-12-19 5-23 22-6 16 16 16 17 1 17-9 0-20-5-23-11z"/><path d="m4810 4960c0-5 4-10 9-10 6 0 13 5 16 10 3 6-1 10-9 10-9 0-16-4-16-10z"/><path d="m5844 5005c-9-23 4-47 23-43 11 2 19 14 21 31 3 22-1 27-18 27-11 0-23-7-26-15z"/><path d="m5892 4855c0-16 2-22 5-12 2 9 2 23 0 30-3 6-5-1-5-18z"/><path d="m5901 4768c-1-21 4-38 9-38 11 0 11 14 0 50-7 22-8 21-9-12z"/><path d="m5830 4730c0-23 25-27 33-6 7 16-1 26-20 26-7 0-13-9-13-20z"/><path d="m5778 4676c-3-12-2-30 2-40 5-16 7-16 19-2 7 9 20 16 27 16 24 0 15 19-15 34-27 15-29 14-33-8z"/><path d="m5870 4670c0-5 5-10 11-10 5 0 7 5 4 10-3 6-8 10-11 10-2 0-4-4-4-10z"/><path d="m5820 4559c0-5 5-7 10-4 6 3 10 8 10 11 0 2-4 4-10 4-5 0-10-5-10-11z"/><path d="m2436 4255c-3-8-14-15-24-15-31 0-32-11-4-49 67-90 132-132 132-84 0 10 6 14 20 10 28-7 33 7 16 41s-38 44-70 36c-25-6-52 18-41 36 3 5 0 17-8 25-13 13-16 13-21 0z"/><path d="m2680 4226c0-8 5-18 10-21 6-3 10 3 10 14 0 12-4 21-10 21-5 0-10-6-10-14z"/><path d="m2522 3965c20-14 40-25 44-25s-5 11-20 25-35 25-44 25c-10 0-3-10 20-25z"/><path d="m2620 3906c0-2 8-10 18-17 15-13 16-12 3 4s-21 21-21 13z"/><path d="m2740 3883c0-30-18-38-39-19-10 9-24 16-32 16-17-1 41-50 59-50 20 0 38 48 24 62-9 9-12 7-12-9z"/><path d="m2520 3605c-7-13-20-26-29-28-13-4-13-5 2-6 18-1 57 32 57 49 0 18-16 10-30-15z"/><path d="m4523 4414c-7-19 2-28 22-21 19 8 19 23 0 31-9 3-18-1-22-10z"/><path d="m4486 4211c-8-13 11-51 25-51 6 0 8 9 4 23-10 30-21 41-29 28z"/><path d="m4245 4177c-4-9-5-26-2-37 3-13-1-24-14-30-10-6-19-18-19-26s-7-28-15-43c-13-27-13-30 10-55 49-53 102-13 77 58-18 48-15 73 8 79s28 39 6 35c-8-2-22 6-30 17-14 19-15 19-21 2z"/><path d="m4000 3980c0-8 25-20 41-20 20 0 7 18-16 22-14 3-25 2-25-2z"/><path d="m3960 3955c0-9 5-15 11-13s11 8 11 13-5 11-11 13-11-4-11-13z"/><path d="m3530 3715c0-8 5-15 10-15 6 0 10 7 10 15s-4 15-10 15c-5 0-10-7-10-15z"/><path d="m3370 3532c0-19 12-42 22-42 14 0 5 43-9 48-7 2-13-1-13-6z"/><path d="m5425 3621c-19-8-19-8 2-19 31-17 43-15 43 8 0 21-12 24-45 11z"/><path d="m5300 3572c0-5 7-16 16-23 14-12 16-11 13 5-4 20-29 35-29 18z"/><path d="m5368 3568c-4-10-3-51 1-66 1-1 15 5 32 13 39 21 38 58-2 63-15 2-29-3-31-10z"/><path d="m5252 3441c4-13 18-16 19-4 0 4-5 9-11 12-7 2-11-2-8-8z"/><path d="m5070 3405c0-9 5-15 11-13s11 8 11 13-5 11-11 13-11-4-11-13z"/><path d="m5173 3325c-8-22 6-33 17-15 13 20 12 30 0 30-6 0-13-7-17-15z"/><path d="m4843 3170c-12-28-6-47 9-32 5 5 8 20 6 33l-5 24z"/><path d="m5180 3160c0-11 4-20 9-20 11 0 22 26 14 34-12 12-23 5-23-14z"/><path d="m4261 2933c7-12 15-20 18-17 3 2-3 12-13 22-17 16-18 16-5-5z"/><path d="m4024 2699c-10-17 13-36 27-22 12 12 4 33-11 33-5 0-12-5-16-11z"/><path d="m4164 2619c-10-17 13-36 27-22 12 12 4 33-11 33-5 0-12-5-16-11z"/><path d="m3936 2536c3-9 11-16 16-16 13 0 5 23-10 28-7 2-10-2-6-12z"/><path d="m5852 3418c2-6 10-14 16-16 7-2 10 2 6 12-7 18-28 22-22 4z"/><path d="m5810 3334c0-8 5-12 10-9 6 3 10 10 10 16 0 5-4 9-10 9-5 0-10-7-10-16z"/><path d="m5854 3329c-9-15 10-32 30-27 15 3 14 5-3 20-13 11-23 13-27 7z"/><path d="m5810 3231c0-5 7-11 15-15 9-3 15 0 15 9 0 8-7 15-15 15s-15-4-15-9z"/><path d="m5865 3210c3-5 10-10 16-10 5 0 9 5 9 10 0 6-7 10-16 10-8 0-12-4-9-10z"/><path d="m5754 3169c-8-14 18-31 30-19 9 9 0 30-14 30-5 0-12-5-16-11z"/><path d="m5759 3119c-11-7-11-9 4-9 19 0 23-15 7-25-14-9-12-25 3-25 6 0 17 11 24 25 9 21 8 27-6 34-10 6-23 6-32 0z"/><path d="m5825 3070c-3-5-1-10 4-10 6 0 11 5 11 10 0 6-2 10-4 10-3 0-8-4-11-10z"/><path d="m5810 2900c0-5 5-10 11-10 5 0 7 5 4 10-3 6-8 10-11 10-2 0-4-4-4-10z"/><path d="m5872 2588c-7-7-12-16-12-20 0-15 15-8 28 12 13 22 3 27-16 8z"/><path d="m5810 2561c-11-22-4-51 13-51 6 0 20-8 31-17 20-18 20-18 3 9-9 15-17 39-17 53 0 30-15 33-30 6z"/><path d="m3500 3235c-7-9-8-15-2-15 5 0 12 7 16 15 3 8 4 15 2 15s-9-7-16-15z"/><path d="m3450 3090c0-5-7-10-15-10-10 0-15-10-15-29 0-36 13-46 30-25 7 8 19 13 27 10 14-6 29 36 18 53-8 14-45 14-45 1z"/><path d="m3120 3020c0-19 3-21 12-12s9 15 0 24-12 7-12-12z"/><path d="m3480 2760c0-23 31-27 49-7 14 17 4 27-26 27-16 0-23-6-23-20z"/><path d="m3488 2680c-28-28-49-52-47-55 3-2 30 20 59 50 68 69 58 73-12 5z"/><path d="m3325 2680c3-5 8-10 11-10 2 0 4 5 4 10 0 6-5 10-11 10-5 0-7-4-4-10z"/><path d="m3395 2590c-10-11-24-20-32-20-14 0-18-16-5-24 8-5 30 13 60 49 19 22-2 18-23-5z"/><path d="m3395 2500c3-5 10-10 16-10 5 0 9 5 9 10 0 6-7 10-16 10-8 0-12-4-9-10z"/><path d="m3518 2339c-22-12-24-55-3-62 7-3 24 2 37 13 18 15 21 22 12 36-13 23-25 26-46 13z"/><path d="m1100 3230c0-5 7-10 15-10s15 5 15 10c0 6-7 10-15 10s-15-4-15-10z"/><path d="m1040 3100c0-5 5-10 10-10 6 0 10 5 10 10 0 6-4 10-10 10-5 0-10-4-10-10z"/><path d="m1087 3068c-23-24-21-26 26-32 42-6 43-4 21 29-19 29-23 30-47 3z"/><path d="m1040 3011c0-11 5-23 10-26 6-3 10 3 10 14s-4 23-10 26c-5 3-10-3-10-14z"/><path d="m1092 2978c7-19 38-22 38-4 0 10-9 16-21 16s-19-5-17-12z"/><path d="m1746 2935c-4-11-12-15-23-11-14 6-32-8-33-24 0-3 15-5 33-5 28 0 32-4 35-29 2-18 11-30 23-33 10-3 19-12 19-20 0-10 9-13 27-11 34 4 38 18 14 44-13 14-18 32-16 57 3 29 0 37-13 37-9 0-27 3-38 6-14 4-23 0-28-11z"/><path d="m1830 2734c0-30 3-34 14-25 7 6 14 23 14 36 0 15-6 25-14 25-9 0-14-12-14-36z"/><path d="m1010 2679c0-5 5-7 10-4 6 3 10 8 10 11 0 2-4 4-10 4-5 0-10-5-10-11z"/><path d="m1116 2681c-4-7-5-15-2-18 9-9 19 4 14 18-4 11-6 11-12 0z"/><path d="m980 2610c0-5 7-10 15-10s15 5 15 10c0 6-7 10-15 10s-15-4-15-10z"/><path d="m5468 2952c-14-6-15-9-3-26 17-22 48-14 43 11-4 19-16 24-40 15z"/><path d="m4890 2701c0-15 6-21 21-21 14 0 19 5 17 17-5 26-38 29-38 4z"/><path d="m5070 2685c0-16 6-25 15-25 8 0 15 9 15 19s-7 21-15 25c-11 4-15-1-15-19z"/><path d="m4957 2654c-8-8 1-24 14-24 5 0 9 7 9 15 0 15-12 20-23 9z"/><path d="m4637 2564c-4-4-7-14-7-23 0-11 3-12 11-4 6 6 10 16 7 23-2 6-7 8-11 4z"/><path d="m4839 2512c-6-17-17-33-25-36-24-9-17-61 10-75 19-11 31-10 70 3 26 9 56 16 67 16s17 5 14 10c-3 6-15 10-26 10-12 0-19 7-19 18 0 17-18 37-63 71-15 12-18 10-28-17z"/><path d="m4278 2406c-4-21-2-23 16-16 28 10 34 40 8 40-13 0-21-8-24-24z"/><path d="m4166 2329c-37-38-35-53 9-61 15-2 21 4 25 27 5 27 9 30 48 32 29 1 42-3 39-10-2-7-12-14-23-16-35-6-43-20-33-54 5-18 7-44 4-59-7-32 23-58 60-50 26 4 33 26 14 38-7 4-1 15 17 29 27 21 28 24 17 60-11 33-10 42 7 66 11 15 20 29 20 31 0 1-38 3-84 3-83 0-84 0-120-36z"/><path d="m4403 2317c-32-14-28-25 7-22 37 3 45 9 28 22-9 7-20 7-35 0z"/><path d="m3881 2144c-1-19 5-34 14-37 20-8 30 12 12 26-8 7-17 19-20 27s-6 1-6-16z"/><path d="m4143 2143c-16-6-17-39-3-48 6-4 8-11 5-16-4-5 0-9 8-9 12 0 27 39 27 71 0 10-17 11-37 2z"/><path d="m3970 2065c0-10 7-15 18-13 21 4 19 22-2 26-10 2-16-3-16-13z"/><path d="m4047 2053c-12-11-8-33 6-33 8 0 22 9 32 20 18 19 17 20-7 20-13 0-28-3-31-7z"/><path d="m1560 2460c0-5 5-10 11-10 5 0 7 5 4 10-3 6-8 10-11 10-2 0-4-4-4-10z"/><path d="m3032 2367c-14-16-6-27 20-27 13 0 18 6 16 17-4 22-22 27-36 10z"/><path d="m3020 2280c0-5 5-10 10-10 6 0 10 5 10 10 0 6-4 10-10 10-5 0-10-4-10-10z"/><path d="m2820 2075c7-9 15-13 17-11 7 7-7 26-19 26-6 0-6-6 2-15z"/><path d="m1040 2260c0-13 28-25 38-16 3 4 0 11-8 16-20 13-30 12-30 0z"/><path d="m1145 2040c4-6 11-8 16-5 14 9 11 15-7 15-8 0-12-5-9-10z"/><path d="m1098 1944c-3-3-18-6-32-8-15-1-26-6-26-9 0-4 0-11 0-17 0-16 27-12 34 5 3 8 17 15 31 15s25 5 25 10c0 11-23 14-32 4z"/><path d="m1145 1940c-3-5 1-10 9-10 9 0 16 5 16 10 0 6-4 10-9 10-6 0-13-4-16-10z"/><path d="m1138 1863c7-3 16-2 19 1 4 3-2 6-13 5-11 0-14-3-6-6z"/><path d="m1003 1774c-10-28 13-39 43-19 21 13 24 19 13 26-22 14-49 10-56-7z"/><path d="m1067 1733c-14-13-6-33 13-33 13 0 20 7 20 20 0 19-20 27-33 13z"/><path d="m1090 1650c0-5 4-10 9-10 6 0 13 5 16 10 3 6-1 10-9 10-9 0-16-4-16-10z"/><path d="m5100 2090c-13-8-12-10 3-10 9 0 17 5 17 10 0 12-1 12-20 0z"/><path d="m5780 2120c0-5 7-10 15-10s15 5 15 10c0 6-7 10-15 10s-15-4-15-10z"/><path d="m5774 1738c8-43 31-67 48-50 9 9 8 16-4 29-8 10-18 26-21 36-12 32-30 19-23-15z"/><path d="m5780 1526c0-9 5-16 10-16 6 0 10 4 10 9 0 6-4 13-10 16-5 3-10-1-10-9z"/><path d="m5870 1520c0-5 7-10 15-10s15 5 15 10c0 6-7 10-15 10s-15-4-15-10z"/><path d="m5662 1375c-8-9-22-12-41-9-17 4-32 1-36-5-5-9 11-11 57-9 50 2 63 6 66 21 4 21-27 23-46 2z"/><path d="m5470 1290c0-5 5-10 10-10 6 0 10 5 10 10 0 6-4 10-10 10-5 0-10-4-10-10z"/><path d="m5415 1251c-11-5-26-6-32-4-7 3-13-2-13-10 0-28 32-29 57-2 25 26 22 29-12 16z"/><path d="m4824 2025c-8-20 4-35 27-35 22 0 23 4 9 31-13 23-28 25-36 4z"/><path d="m4760 1831c0-18 18-21 30-6 10 13 9 15-9 15-11 0-21-4-21-9z"/><path d="m2117 1407c-10-12-16-31-13-42s6-28 6-39c0-16 5-18 43-12 23 4 49 13 57 21 12 13 9 20-30 55-24 22-44 40-45 40 0 0-8-10-18-23z"/><path d="m3270 1750c0-5 5-10 11-10 5 0 7 5 4 10-3 6-8 10-11 10-2 0-4-4-4-10z"/><path d="m3360 1710c0-5 5-10 10-10 6 0 10 5 10 10 0 6-4 10-10 10-5 0-10-4-10-10z"/><path d="m2835 1459c-11-17 1-21 15-4 8 9 8 15 2 15s-14-5-17-11z"/><path d="m4370 1910c0-5 7-10 15-10s15 5 15 10c0 6-7 10-15 10s-15-4-15-10z"/><path d="m4117 1720c-14-52 25-98 58-70 36 30 3 76-37 51-17-10-18-9-12 14 3 14 4 25 1 25-2 0-7-9-10-20z"/><path d="m3843 1674c-8-20 13-42 27-28 12 12 3 44-11 44-5 0-12-7-16-16z"/><path d="m3770 1660c0-5 5-10 10-10 6 0 10 5 10 10 0 6-4 10-10 10-5 0-10-4-10-10z"/><path d="m3700 1555c0-10 7-15 18-13 21 4 19 22-2 26-10 2-16-3-16-13z"/><path d="m4942 1588c3-7 13-15 22-16 12-3 17 1 14 10-3 7-13 15-22 16-12 3-17-1-14-10z"/><path d="m4630 1480c0-5 5-10 10-10 6 0 10 5 10 10 0 6-4 10-10 10-5 0-10-4-10-10z"/><path d="m4460 1330c0-5 7-10 16-10 8 0 12 5 9 10-3 6-10 10-16 10-5 0-9-4-9-10z"/><path d="m2960 1205c0-8 7-15 15-15 9 0 12 6 9 15-4 8-10 15-15 15s-9-7-9-15z"/><path d="m3390 1304c0-9 5-14 12-12 18 6 21 28 4 28-9 0-16-7-16-16z"/><path d="m3240 1080c0-5 7-10 16-10 8 0 12 5 9 10-3 6-10 10-16 10-5 0-9-4-9-10z"/><path d="m3196 1021c-21-23-8-34 19-15 13 10 16 17 9 24s-16 4-28-9z"/><path d="m3120 939c0-24 23-21 28 4 2 10-3 17-12 17-10 0-16-9-16-21z"/><path d="m3397 884c3-7 9-14 14-14 14 0 10 17-5 23-10 4-13 1-9-9z"/><path d="m4164 1416c-4-10-2-22 4-28 8-8 13-7 18 6 4 10 2 22-4 28-8 8-13 7-18-6z"/><path d="m3890 1290c0-5 5-10 10-10 6 0 10 5 10 10 0 6-4 10-10 10-5 0-10-4-10-10z"/><path d="m3943 1132c-13-9-23-71-12-78 5-2 5-12 2-21-5-13-3-15 13-9 17 7 48 18 94 33 11 3 6 12-20 34-47 40-64 49-77 41z"/><path d="m4527 1064c-12-13-7-54 7-60 24-9 58 15 54 39-3 22-45 36-61 21z"/><path d="m4056 1003c-3-21-6-48-6-60s-5-25-10-28c-6-3-10-1-10 4 0 44-114-63-116-108-1-25 4-30 38-42l39-12 89 92c50 51 90 98 90 106 0 16-78 85-96 85-6 0-15-17-18-37z"/><path d="m3665 870c-3-5-17-10-30-10-29 0-39-13-30-40 10-31 29-24 53 20 11 22 19 40 17 40s-7-4-10-10z"/><path d="m3827 873c-12-11-8-23 8-23 8 0 15 7 15 15 0 16-12 20-23 8z"/><path d="m4525 840c-20-13-24-20-14-20 18 0 71 39 54 40-5 0-23-9-40-20z"/><path d="m4327 823c-3-5-2-15 4-23 15-26 10-37-21-43-18-4-30-13-30-22 0-19-2-19 48 5 23 11 45 19 49 18s25 6 47 15c49 21 46 22 46-13 0-23 5-30 19-30 34 0 42 23 20 57l-20 31-44-17c-24-9-47-20-51-24-12-11-34-8-34 6-1 18-27 50-33 40z"/><path d="m3485 770c-3-5 1-10 9-10 9 0 16 5 16 10 0 6-4 10-9 10-6 0-13-4-16-10z"/><path d="m4406 698c-9-5-20-7-25-3-5 3-13 0-16-6-4-6-17-14-29-19l-21-9h22c12-1 33 3 46 8s45 12 71 14c26 3 50 8 53 10 3 3 17 1 31-4 16-6 29-6 35 0 5 5 2 11-9 14-29 9-140 5-158-5z"/><path d="m4551 554c0-11 3-14 6-6 3 7 2 16-1 19-3 4-6-2-5-13z"/><path d="m1240 1390c0-5 5-10 10-10 6 0 10 5 10 10 0 6-4 10-10 10-5 0-10-4-10-10z"/><path d="m1280 1386c0-7 11-19 25-26s25-21 25-31 5-21 10-24c6-3 10 1 10 9 0 9 7 16 15 16 37 0 3 37-51 56-26 9-34 9-34 0z"/><path d="m1430 1312c0-20 76-62 111-62 20 0 7 19-24 37-39 23-87 37-87 25z"/><path d="m1490 1210c0-5 4-10 9-10 6 0 13 5 16 10 3 6-1 10-9 10-9 0-16-4-16-10z"/><path d="m2310 846c0-8 4-17 8-20 13-8 35 11 28 23-10 16-36 14-36-3z"/><path d="m2380 844c0-8 9-14 20-14s20 4 20 9-9 11-20 14c-13 3-20 0-20-9z"/><path d="m2230 828c0-16 5-28 10-28 13 0 13 20 0 40-8 12-10 9-10-12z"/><path d="m2660 805c0-8 0-18-1-22 0-4 3-9 8-10 4-2 9 8 9 22 1 14-2 25-7 25s-9-7-9-15z"/><path d="m2265 800c-3-5 1-10 9-10 9 0 16 5 16 10 0 6-4 10-9 10-6 0-13-4-16-10z"/><path d="m2721 771c-18-12-5-51 18-51 9 0 22-5 28-11 20-20 24 8 6 40-19 32-29 37-52 22z"/><path d="m2590 751c0-11 9-23 21-26 26-9 33-2 24 24-8 27-45 28-45 2z"/><path d="m2466 735c-3-9 0-15 9-15 8 0 15 7 15 15s-4 15-9 15-11-7-15-15z"/><path d="m2900 520c0-5 7-10 16-10 8 0 12 5 9 10-3 6-10 10-16 10-5 0-9-4-9-10z"/><path d="m3062 466c5-53 12-64 32-47 28 23 26 50-6 72l-30 21z"/><path d="m2975 490c-3-5-1-10 4-10 6 0 11 5 11 10 0 6-2 10-4 10-3 0-8-4-11-10z"/><path d="m2910 460c0-5 5-10 10-10 6 0 10 5 10 10 0 6-4 10-10 10-5 0-10-4-10-10z"/><path d="m3370 365c0-18 5-25 20-25 23 0 24 4 10 31-15 27-30 24-30-6z"/><path d="m3255 271c-3-5-1-12 5-16 5-3 10 1 10 9 0 18-6 21-15 7z"/><path d="m4010 487c0-18 28-42 37-33 9 8-9 38-25 44-7 2-12-3-12-11z"/><path d="m3630 320c0-5 5-10 10-10 6 0 10 5 10 10 0 6-4 10-10 10-5 0-10-4-10-10z"/></g></svg>